<?xml version="1.0" encoding="utf-8"?>
<!-- Generator: Adobe Illustrator 16.0.0, SVG Export Plug-In . SVG Version: 6.00 Build 0)  -->
<!DOCTYPE svg PUBLIC "-//W3C//DTD SVG 1.1//EN" "http://www.w3.org/Graphics/SVG/1.1/DTD/svg11.dtd">
<svg version="1.1" id="Layer_1" xmlns="http://www.w3.org/2000/svg" xmlns:xlink="http://www.w3.org/1999/xlink" x="0px" y="0px"
	 width="800px" height="800px" viewBox="0 0 800 800" enable-background="new 0 0 800 800" xml:space="preserve">
<g>
	<polygon fill="#D40B6B" points="87.814,-395.81 112.809,-377.798 87.814,-359.79 	"/>
	<path fill="#D40B6B" d="M465.59-232.796c-92.491-92.491-214.432-144.821-344.678-148.257l4.518,3.257l-5.027,3.622
		c128.597,3.31,249.003,54.944,340.313,146.253C555.144-133.496,607.145-7.949,607.145,125.59s-52.003,259.086-146.429,353.516
		c-94.427,94.424-219.972,146.428-353.512,146.428c-133.541,0-259.085-52.004-353.514-146.43
		c-94.426-94.428-146.43-219.975-146.43-353.514s51.639-259.085,146.068-353.512c90.118-90.118,209.15-141.558,334.924-146.07
		v-6.895c-127.497,4.514-248.378,56.672-339.798,148.091C-347.275-137.067-399.812-9.791-399.812,125.59
		c0,135.381,52.811,262.66,148.539,358.387c95.728,95.729,223.053,148.449,358.432,148.449
		c135.381,0,262.679-52.721,358.408-148.449s148.46-223.007,148.46-358.387C614.026-9.789,561.318-137.068,465.59-232.796z"/>
	<g>
		<circle fill="#D40B6B" cx="287.05" cy="-348.92" r="113.298"/>
		<g enable-background="new    ">
			<path fill="#FFFFFF" d="M246.723-354c0,2.178-0.424,4.155-1.271,5.93c-0.848,1.776-1.958,3.249-3.332,4.417
				c-1.427,1.213-3.017,2.13-4.771,2.752c-1.754,0.623-3.592,0.934-5.512,0.934h-9.962l0.241-1.062c0.279,0,0.674-0.027,1.184-0.081
				c0.509-0.054,0.871-0.123,1.086-0.209c0.386-0.15,0.679-0.362,0.877-0.635c0.198-0.274,0.335-0.598,0.41-0.974l3.799-16.431
				c0.032-0.129,0.062-0.271,0.088-0.426c0.027-0.156,0.041-0.282,0.041-0.378c0-0.236-0.041-0.442-0.121-0.62
				c-0.08-0.177-0.244-0.324-0.491-0.442c-0.278-0.129-0.622-0.239-1.029-0.33c-0.408-0.091-0.72-0.153-0.934-0.185l0.241-1.062
				h9.672c0.966,0,2.017,0.137,3.154,0.41c1.137,0.274,2.199,0.743,3.187,1.408c1.041,0.698,1.875,1.628,2.503,2.792
				C246.409-357.028,246.723-355.63,246.723-354z M242.941-353.978c0-2.405-0.645-4.273-1.933-5.605
				c-1.289-1.332-3.002-1.997-5.139-1.997c-0.44,0-0.897,0.008-1.369,0.024c-0.473,0.016-0.844,0.03-1.111,0.041l-4.083,17.732
				c-0.032,0.151-0.059,0.296-0.08,0.436c-0.021,0.14-0.032,0.274-0.032,0.402c0,0.645,0.268,1.098,0.805,1.361
				c0.536,0.263,1.416,0.395,2.64,0.395c1.6,0,3.056-0.365,4.371-1.095c1.314-0.73,2.406-1.702,3.275-2.915
				c0.891-1.256,1.556-2.625,1.996-4.107C242.721-350.789,242.941-352.345,242.941-353.978z"/>
			<path fill="#FFFFFF" d="M255.896-341.721l-0.241,1.03c-0.987,0.397-1.775,0.673-2.365,0.829
				c-0.591,0.155-1.095,0.233-1.514,0.233c-0.858,0-1.502-0.223-1.931-0.668c-0.43-0.446-0.644-0.996-0.644-1.651
				c0-0.247,0.021-0.505,0.064-0.773c0.042-0.269,0.112-0.606,0.209-1.015l1.7-6.847c0.086-0.375,0.169-0.778,0.249-1.208
				s0.121-0.795,0.121-1.096c0-0.602-0.1-1.001-0.298-1.2s-0.603-0.298-1.213-0.298c-0.235,0-0.549,0.038-0.939,0.113
				c-0.391,0.075-0.688,0.14-0.892,0.193l0.241-1.03c0.837-0.375,1.587-0.654,2.252-0.837c0.665-0.182,1.19-0.273,1.577-0.273
				c0.879,0,1.518,0.209,1.914,0.628s0.595,0.983,0.595,1.691c0,0.193-0.021,0.457-0.064,0.79c-0.043,0.333-0.107,0.666-0.192,0.999
				l-1.711,6.847c-0.106,0.419-0.199,0.83-0.279,1.232s-0.12,0.733-0.12,0.991c0,0.612,0.137,1.031,0.409,1.257
				s0.714,0.338,1.323,0.338c0.203,0,0.494-0.027,0.874-0.081S255.693-341.646,255.896-341.721z M257.039-362.304
				c0,0.611-0.198,1.145-0.595,1.601c-0.397,0.456-0.891,0.684-1.481,0.684c-0.547,0-1.019-0.217-1.416-0.652
				c-0.396-0.435-0.595-0.931-0.595-1.489c0-0.59,0.198-1.105,0.595-1.545c0.397-0.44,0.869-0.66,1.416-0.66
				c0.612,0,1.111,0.207,1.497,0.62C256.846-363.331,257.039-362.851,257.039-362.304z"/>
			<path fill="#FFFFFF" d="M262.656-339.483c-1.588,0-2.911-0.282-3.968-0.845c-1.057-0.563-1.585-1.301-1.585-2.212
				c0-0.429,0.155-0.832,0.467-1.207s0.692-0.563,1.143-0.563c0.429,0,0.775,0.099,1.038,0.298s0.47,0.432,0.62,0.7
				c0.16,0.279,0.303,0.612,0.426,0.998s0.229,0.703,0.314,0.95c0.16,0.182,0.383,0.351,0.667,0.507s0.695,0.233,1.231,0.233
				c1.159,0,2.036-0.291,2.632-0.872c0.595-0.581,0.893-1.366,0.893-2.355c0-0.731-0.279-1.314-0.837-1.75
				c-0.558-0.435-1.39-0.836-2.494-1.202c-0.397-0.128-0.864-0.325-1.4-0.588c-0.536-0.263-0.966-0.545-1.287-0.847
				c-0.387-0.344-0.697-0.752-0.934-1.225s-0.354-1.032-0.354-1.677c0-1.376,0.614-2.566,1.843-3.571s2.739-1.508,4.53-1.508
				c0.419,0,0.869,0.021,1.353,0.064c0.482,0.043,1.014,0.161,1.593,0.354c0.504,0.172,0.934,0.426,1.288,0.765
				c0.354,0.338,0.53,0.775,0.53,1.312c0,0.44-0.147,0.839-0.442,1.199c-0.295,0.36-0.684,0.539-1.167,0.539
				c-0.396,0-0.724-0.085-0.981-0.257c-0.258-0.171-0.472-0.402-0.644-0.692s-0.312-0.601-0.418-0.934
				c-0.107-0.333-0.226-0.66-0.354-0.981c-0.204-0.086-0.387-0.145-0.547-0.177c-0.161-0.032-0.376-0.048-0.645-0.048
				c-1.051,0-1.848,0.283-2.39,0.847c-0.542,0.565-0.812,1.235-0.812,2.009c0,0.752,0.244,1.32,0.732,1.701
				c0.488,0.382,1.295,0.777,2.422,1.185c1.459,0.527,2.519,1.129,3.179,1.806c0.659,0.677,0.989,1.516,0.989,2.515
				c0,1.634-0.627,2.964-1.883,3.991C266.148-339.997,264.565-339.483,262.656-339.483z"/>
			<path fill="#FFFFFF" d="M278.201-339.516c-1.877,0-3.36-0.548-4.449-1.643s-1.634-2.653-1.634-4.672
				c0-1.342,0.207-2.628,0.62-3.858c0.412-1.229,0.989-2.322,1.729-3.278c0.74-0.956,1.677-1.737,2.809-2.344
				c1.132-0.606,2.39-0.91,3.773-0.91c1.534,0,2.701,0.325,3.501,0.974c0.799,0.649,1.198,1.467,1.198,2.454
				c0,0.741-0.174,1.39-0.522,1.948c-0.349,0.558-0.872,0.836-1.569,0.836c-0.579,0-1.014-0.144-1.304-0.433
				c-0.289-0.289-0.435-0.61-0.435-0.963c0-0.342,0.116-0.81,0.348-1.403c0.232-0.594,0.417-1.072,0.554-1.437
				c-0.118-0.289-0.381-0.5-0.788-0.633c-0.408-0.134-0.832-0.201-1.271-0.201c-1.46,0-2.718,0.851-3.774,2.551
				c-1.057,1.701-1.585,3.785-1.585,6.252c0,1.523,0.341,2.733,1.023,3.629c0.683,0.896,1.604,1.344,2.765,1.344
				c1.042,0,1.97-0.279,2.781-0.837c0.811-0.558,1.587-1.346,2.329-2.366l0.919,0.676c-0.74,1.169-1.746,2.181-3.018,3.034
				C280.929-339.942,279.596-339.516,278.201-339.516z"/>
			<path fill="#FFFFFF" d="M302.615-349.89c0,1.268-0.214,2.535-0.644,3.802c-0.429,1.267-1.052,2.378-1.866,3.334
				c-0.826,0.988-1.821,1.78-2.985,2.376c-1.165,0.596-2.514,0.894-4.048,0.894c-1.781,0-3.227-0.574-4.337-1.724
				c-1.11-1.149-1.666-2.696-1.666-4.639c0-1.429,0.236-2.76,0.708-3.996c0.473-1.235,1.105-2.319,1.899-3.254
				c0.805-0.934,1.8-1.688,2.985-2.263c1.186-0.574,2.47-0.862,3.854-0.862c1.909,0,3.403,0.583,4.481,1.748
				C302.076-353.308,302.615-351.78,302.615-349.89z M299.333-350.502c0-1.525-0.271-2.669-0.813-3.432
				c-0.541-0.763-1.322-1.144-2.341-1.144c-0.891,0-1.73,0.274-2.519,0.822c-0.789,0.548-1.468,1.439-2.036,2.674
				c-0.44,0.935-0.762,1.974-0.966,3.118c-0.204,1.144-0.306,2.199-0.306,3.166c0,1.536,0.266,2.699,0.797,3.488
				s1.333,1.184,2.405,1.184c0.955,0,1.803-0.301,2.543-0.902s1.341-1.364,1.803-2.288c0.461-0.902,0.815-1.936,1.062-3.102
				C299.208-348.083,299.333-349.278,299.333-350.502z"/>
			<path fill="#FFFFFF" d="M320.415-353.241c0,1.633-0.247,3.289-0.74,4.97c-0.493,1.681-1.169,3.149-2.027,4.406
				c-0.869,1.3-1.904,2.355-3.106,3.166c-1.201,0.811-2.521,1.216-3.959,1.216c-1.405,0-2.526-0.39-3.363-1.168
				c-0.837-0.779-1.255-1.823-1.255-3.134c0-0.247,0.029-0.526,0.088-0.838c0.06-0.311,0.1-0.521,0.121-0.628l1.4-5.155
				c0.106-0.419,0.201-0.83,0.281-1.232s0.121-0.754,0.121-1.055c0-0.602-0.105-1.004-0.314-1.208s-0.619-0.306-1.23-0.306
				c-0.226,0-0.531,0.046-0.918,0.139c-0.386,0.092-0.676,0.164-0.869,0.215l0.241-1.022c0.838-0.373,1.581-0.66,2.23-0.863
				c0.649-0.202,1.168-0.303,1.554-0.303c0.859,0,1.495,0.199,1.908,0.596c0.413,0.397,0.62,0.972,0.62,1.724
				c0,0.215-0.019,0.476-0.057,0.782c-0.037,0.306-0.104,0.642-0.201,1.007l-1.548,6.009c-0.107,0.408-0.188,0.8-0.242,1.176
				s-0.08,0.618-0.08,0.725c0,0.559,0.089,1.013,0.266,1.362s0.399,0.62,0.668,0.813c0.257,0.183,0.539,0.312,0.845,0.387
				s0.619,0.113,0.941,0.113c0.729,0,1.483-0.231,2.261-0.693c0.778-0.462,1.457-1.063,2.036-1.805
				c0.633-0.805,1.143-1.705,1.529-2.698c0.386-0.994,0.579-2.092,0.579-3.295c0-0.644-0.088-1.141-0.266-1.49
				c-0.177-0.349-0.373-0.652-0.587-0.91c-0.215-0.269-0.41-0.55-0.588-0.846c-0.177-0.295-0.266-0.712-0.266-1.249
				c0-0.612,0.204-1.079,0.612-1.401c0.407-0.322,0.836-0.483,1.287-0.483c0.633,0,1.129,0.255,1.488,0.765
				C320.235-354.945,320.415-354.207,320.415-353.241z"/>
			<path fill="#FFFFFF" d="M336.331-352.868c0,1.139-0.356,2.117-1.07,2.934s-1.751,1.467-3.114,1.95
				c-0.997,0.366-2.006,0.661-3.025,0.887c-1.02,0.226-2.146,0.414-3.379,0.564c0,1.695,0.313,2.991,0.941,3.886
				c0.627,0.896,1.547,1.344,2.76,1.344c1.072,0,2.02-0.268,2.841-0.805c0.82-0.536,1.628-1.335,2.422-2.398l0.917,0.676
				c-0.858,1.309-1.932,2.355-3.219,3.138s-2.623,1.175-4.007,1.175c-1.899,0-3.351-0.532-4.354-1.595
				c-1.003-1.063-1.505-2.572-1.505-4.527c0-1.353,0.212-2.645,0.636-3.874s1.043-2.354,1.858-3.375
				c0.794-0.999,1.768-1.804,2.921-2.416c1.153-0.612,2.428-0.918,3.822-0.918c1.545,0,2.69,0.314,3.437,0.943
				C335.958-354.649,336.331-353.846,336.331-352.868z M333.37-353.264c0-0.417-0.06-0.747-0.177-0.987
				c-0.118-0.241-0.269-0.42-0.451-0.538c-0.193-0.128-0.396-0.208-0.611-0.241s-0.435-0.048-0.66-0.048
				c-1.287,0-2.476,0.707-3.564,2.12c-1.089,1.413-1.778,3.174-2.068,5.283c0.751-0.107,1.599-0.259,2.543-0.458
				c0.944-0.198,1.728-0.458,2.35-0.779c0.891-0.46,1.554-1.052,1.987-1.774C333.152-351.409,333.37-352.268,333.37-353.264z"/>
			<path fill="#FFFFFF" d="M352.329-353.598c0,0.301-0.043,0.631-0.129,0.99c-0.086,0.36-0.209,0.658-0.37,0.894
				c-0.193,0.29-0.405,0.512-0.636,0.668c-0.231,0.155-0.561,0.233-0.99,0.233c-0.579,0-1.014-0.145-1.304-0.434
				c-0.289-0.29-0.435-0.612-0.435-0.966c0-0.333,0.081-0.706,0.242-1.119c0.16-0.413,0.327-0.823,0.499-1.231
				c-0.129,0-0.341,0.035-0.636,0.105s-0.65,0.207-1.068,0.411c-0.417,0.204-0.891,0.511-1.42,0.919
				c-0.53,0.408-1.095,0.951-1.693,1.627l-2.594,11.535h-3.002l2.348-10.44c0.054-0.258,0.131-0.645,0.233-1.16
				c0.102-0.516,0.152-0.897,0.152-1.144c0-0.602-0.102-1.004-0.306-1.208c-0.203-0.204-0.61-0.306-1.222-0.306
				c-0.236,0-0.536,0.04-0.9,0.121c-0.365,0.081-0.649,0.148-0.853,0.201l0.241-1.03c0.837-0.375,1.577-0.654,2.221-0.837
				c0.644-0.182,1.196-0.273,1.657-0.273c0.858,0,1.47,0.233,1.835,0.701c0.364,0.467,0.547,1.168,0.547,2.102h0.097
				c1.276-1.106,2.245-1.879,2.905-2.319c0.659-0.44,1.349-0.661,2.067-0.661c0.344,0,0.677,0.043,0.998,0.129
				c0.322,0.086,0.596,0.231,0.821,0.435c0.235,0.225,0.41,0.485,0.523,0.78C352.272-354.582,352.329-354.155,352.329-353.598z"/>
		</g>
	</g>
	<g>
		<circle fill="#D40B6B" cx="529.965" cy="-137.924" r="113.298"/>
		<g enable-background="new    ">
			<path fill="#FFFFFF" d="M517.381-147.205c0,1.298-0.287,2.457-0.861,3.476c-0.576,1.02-1.314,1.867-2.217,2.543
				c-0.945,0.708-2.004,1.242-3.176,1.601c-1.17,0.36-2.396,0.539-3.674,0.539h-2.789l-1.629,7.047
				c-0.021,0.098-0.039,0.2-0.049,0.308c-0.012,0.107-0.016,0.199-0.016,0.273c0,0.236,0.043,0.445,0.129,0.628
				c0.086,0.182,0.258,0.327,0.514,0.435c0.162,0.075,0.486,0.145,0.975,0.209s0.926,0.102,1.311,0.113l-0.24,1.062h-9.809
				l0.24-1.062c0.268-0.021,0.648-0.059,1.143-0.113s0.854-0.123,1.078-0.209c0.387-0.15,0.68-0.368,0.877-0.652
				c0.199-0.284,0.336-0.614,0.41-0.99l3.848-16.641c0.021-0.097,0.039-0.204,0.057-0.322c0.016-0.118,0.023-0.231,0.023-0.338
				c0-0.225-0.043-0.429-0.129-0.611c-0.086-0.182-0.246-0.322-0.482-0.418c-0.344-0.129-0.709-0.225-1.094-0.29
				c-0.387-0.064-0.74-0.107-1.062-0.129l0.24-1.062h10.164c1.838,0,3.332,0.41,4.488,1.231
				C516.805-149.756,517.381-148.632,517.381-147.205z M512.23-142.848c0.441-0.634,0.752-1.308,0.934-2.023
				c0.184-0.714,0.275-1.383,0.275-2.007c0-0.494-0.068-0.961-0.201-1.402c-0.135-0.441-0.363-0.838-0.686-1.193
				c-0.322-0.344-0.736-0.615-1.242-0.814c-0.504-0.198-1.139-0.298-1.9-0.298h-2.096l-2.328,10.219h1.818
				c1.246,0,2.318-0.207,3.221-0.621C510.928-141.399,511.662-142.02,512.23-142.848z"/>
			<path fill="#FFFFFF" d="M526.041-153.643l-4.5,19.376c-0.098,0.408-0.189,0.816-0.275,1.223c-0.086,0.408-0.129,0.74-0.129,0.998
				c0,0.611,0.137,1.03,0.41,1.255c0.273,0.225,0.715,0.338,1.326,0.338c0.213,0,0.531-0.027,0.955-0.081s0.742-0.118,0.957-0.193
				l-0.242,1.03c-0.965,0.386-1.709,0.66-2.229,0.821c-0.521,0.161-1.107,0.241-1.762,0.241c-0.859,0-1.512-0.223-1.957-0.668
				c-0.445-0.445-0.666-0.996-0.666-1.65c0-0.247,0.023-0.504,0.072-0.773c0.047-0.269,0.115-0.606,0.201-1.015l3.922-16.958
				c0.074-0.333,0.125-0.564,0.152-0.693c0.027-0.128,0.041-0.29,0.041-0.483c0-0.386-0.064-0.684-0.193-0.894
				c-0.131-0.209-0.314-0.368-0.551-0.475c-0.227-0.096-0.512-0.161-0.857-0.193c-0.344-0.032-0.695-0.069-1.051-0.112l0.227-0.982
				l5.986-0.354L526.041-153.643z"/>
			<path fill="#FFFFFF" d="M536.953-131.098h-0.111c-0.236,0.193-0.518,0.438-0.844,0.733c-0.328,0.295-0.711,0.577-1.15,0.846
				c-0.418,0.269-0.873,0.502-1.365,0.701c-0.492,0.198-1.029,0.298-1.607,0.298c-1.553,0-2.773-0.558-3.656-1.675
				c-0.885-1.117-1.326-2.642-1.326-4.575c0-1.332,0.246-2.625,0.74-3.882c0.492-1.256,1.174-2.384,2.041-3.383
				c0.826-0.956,1.807-1.726,2.943-2.312c1.137-0.585,2.307-0.878,3.506-0.878c0.762,0,1.488,0.102,2.18,0.306
				s1.236,0.435,1.633,0.692l2.953-0.757l0.193,0.241l-2.451,10.392c-0.086,0.333-0.174,0.738-0.266,1.216s-0.137,0.83-0.137,1.055
				c0,0.612,0.129,1.026,0.387,1.241s0.693,0.322,1.305,0.322c0.205,0,0.496-0.032,0.871-0.097c0.377-0.064,0.666-0.134,0.871-0.209
				l-0.242,1.03c-0.967,0.386-1.688,0.666-2.16,0.837c-0.475,0.171-1.049,0.257-1.727,0.257c-0.773,0-1.387-0.226-1.838-0.676
				C537.244-129.825,536.996-130.4,536.953-131.098z M539.273-141.279c0-0.354-0.039-0.692-0.113-1.015
				c-0.076-0.322-0.23-0.623-0.467-0.902c-0.215-0.269-0.51-0.483-0.887-0.645c-0.375-0.161-0.848-0.242-1.416-0.242
				c-0.783,0-1.545,0.258-2.287,0.773c-0.74,0.516-1.406,1.208-1.996,2.079c-0.559,0.816-1.014,1.805-1.369,2.964
				c-0.354,1.161-0.531,2.336-0.531,3.529c0,0.655,0.039,1.235,0.113,1.74s0.219,0.967,0.434,1.386
				c0.203,0.408,0.498,0.725,0.883,0.951c0.387,0.226,0.873,0.338,1.463,0.338c0.6,0,1.229-0.169,1.887-0.507s1.4-0.932,2.225-1.78
				L539.273-141.279z"/>
			<path fill="#FFFFFF" d="M563.135-130.838l-0.242,1.03c-0.969,0.386-1.723,0.668-2.262,0.845
				c-0.537,0.177-1.082,0.266-1.631,0.266c-0.861,0-1.506-0.223-1.938-0.668c-0.43-0.446-0.645-0.996-0.645-1.651
				c0-0.236,0.021-0.497,0.064-0.781c0.041-0.285,0.111-0.621,0.209-1.007l1.59-6.009c0.119-0.461,0.213-0.88,0.283-1.256
				s0.105-0.677,0.105-0.902c0-0.72-0.172-1.289-0.512-1.708c-0.342-0.419-0.848-0.628-1.518-0.628c-0.65,0-1.379,0.215-2.188,0.645
				c-0.809,0.43-1.57,1.053-2.283,1.87l-2.75,11.824h-3.006l2.414-10.44c0.053-0.258,0.131-0.631,0.232-1.12
				s0.154-0.883,0.154-1.184c0-0.602-0.104-1.004-0.307-1.208c-0.205-0.204-0.615-0.306-1.229-0.306
				c-0.238,0-0.541,0.04-0.906,0.121c-0.367,0.081-0.652,0.148-0.857,0.201l0.242-1.03c0.842-0.375,1.586-0.654,2.232-0.837
				c0.646-0.182,1.203-0.273,1.666-0.273c0.852,0,1.461,0.231,1.828,0.692c0.367,0.462,0.561,1.101,0.582,1.917h0.098
				c1.176-0.945,2.191-1.646,3.047-2.102c0.854-0.456,1.826-0.685,2.918-0.685c1.025,0,1.826,0.298,2.404,0.894
				c0.578,0.596,0.865,1.378,0.865,2.344c0,0.193-0.029,0.537-0.088,1.031s-0.152,0.983-0.281,1.466l-1.354,5.171
				c-0.098,0.344-0.191,0.739-0.283,1.184c-0.09,0.446-0.137,0.792-0.137,1.039c0,0.612,0.135,1.029,0.402,1.249
				c0.27,0.22,0.709,0.33,1.322,0.33c0.203,0,0.496-0.035,0.877-0.104S562.932-130.763,563.135-130.838z"/>
		</g>
	</g>
	<g>
		<circle fill="#D40B6B" cx="601.577" cy="203.217" r="113.299"/>
		<g enable-background="new    ">
			<path fill="#FFFFFF" d="M561.535,212.636c-1.32,0-2.477-0.164-3.469-0.491s-1.793-0.705-2.406-1.135l-0.916,1.175h-1.287
				l1.576-7.821h1.305c0.053,0.934,0.178,1.809,0.377,2.624c0.197,0.815,0.521,1.55,0.973,2.204c0.449,0.676,1.033,1.199,1.75,1.569
				c0.719,0.37,1.607,0.556,2.668,0.556c1.598,0,2.877-0.443,3.842-1.328c0.963-0.885,1.445-2.095,1.445-3.629
				c0-0.826-0.203-1.562-0.609-2.205c-0.408-0.644-1.018-1.143-1.832-1.496c-0.771-0.333-1.535-0.631-2.289-0.894
				c-0.756-0.263-1.498-0.571-2.227-0.926c-0.965-0.461-1.74-1.123-2.33-1.987c-0.59-0.863-0.883-1.837-0.883-2.921
				c0-1.03,0.227-1.979,0.684-2.849c0.455-0.869,1.059-1.62,1.811-2.253c0.729-0.611,1.611-1.1,2.646-1.465
				c1.035-0.364,2.062-0.547,3.082-0.547c0.955,0,1.859,0.112,2.713,0.338c0.852,0.226,1.707,0.649,2.566,1.271l0.885-1.095h1.287
				l-1.625,7.58h-1.303c-0.033-0.826-0.115-1.679-0.25-2.559c-0.133-0.88-0.361-1.609-0.682-2.188
				c-0.355-0.633-0.848-1.129-1.479-1.489c-0.633-0.359-1.473-0.539-2.523-0.539c-1.264,0-2.324,0.438-3.18,1.312
				c-0.857,0.875-1.285,1.913-1.285,3.114c0,0.794,0.156,1.468,0.473,2.02c0.316,0.553,0.807,1.001,1.471,1.345
				c0.707,0.364,1.449,0.678,2.225,0.941c0.777,0.263,1.471,0.539,2.082,0.828c1.23,0.58,2.193,1.277,2.883,2.093
				c0.691,0.815,1.037,1.812,1.037,2.993c0,1.137-0.246,2.199-0.74,3.187s-1.152,1.813-1.979,2.479
				c-0.869,0.708-1.844,1.25-2.922,1.625C564.021,212.449,562.834,212.636,561.535,212.636z"/>
			<path fill="#FFFFFF" d="M589.328,197.766c0,0.472-0.186,0.909-0.557,1.312c-0.369,0.402-0.83,0.604-1.377,0.604
				c-0.355,0-0.703-0.049-1.047-0.146c-0.346-0.096-0.721-0.241-1.129-0.434c-0.59,0.332-1.197,0.742-1.824,1.23
				c-0.629,0.488-1.311,1.079-2.051,1.773c0.611,1.589,1.131,2.891,1.555,3.905s0.785,1.844,1.086,2.488
				c0.387,0.805,0.814,1.377,1.281,1.715c0.465,0.338,0.979,0.507,1.535,0.507c0.258,0,0.613-0.039,1.062-0.115
				c0.451-0.077,0.799-0.157,1.047-0.239l-0.242,1.055c-1,0.404-1.783,0.676-2.354,0.814c-0.568,0.138-1.143,0.207-1.723,0.207
				c-0.688,0-1.275-0.19-1.766-0.571c-0.488-0.381-0.957-1.07-1.406-2.067c-0.439-0.955-0.83-1.896-1.172-2.824
				c-0.344-0.928-0.68-1.805-1.012-2.631l-1.857,1.57l-1.395,6.25h-3.008l4.791-20.727c0.076-0.332,0.127-0.563,0.154-0.692
				c0.025-0.128,0.039-0.289,0.039-0.483c0-0.386-0.064-0.684-0.193-0.894c-0.129-0.209-0.312-0.367-0.549-0.475
				c-0.227-0.097-0.512-0.161-0.857-0.193c-0.344-0.032-0.695-0.07-1.051-0.113l0.227-0.981l5.988-0.354l0.162,0.241l-3.939,16.753
				h0.064c1.211-1.309,2.312-2.443,3.305-3.403c0.992-0.961,2.029-1.939,3.113-2.938c0.771-0.708,1.383-1.193,1.832-1.456
				c0.451-0.263,0.934-0.395,1.449-0.395c0.545,0,0.986,0.152,1.318,0.459C589.162,196.825,589.328,197.241,589.328,197.766z"/>
			<path fill="#FFFFFF" d="M604.393,199.268c0,1.139-0.357,2.117-1.07,2.934c-0.715,0.817-1.752,1.468-3.115,1.951
				c-0.996,0.365-2.006,0.661-3.025,0.887s-2.145,0.413-3.379,0.563c0,1.695,0.314,2.991,0.941,3.887
				c0.627,0.896,1.547,1.344,2.76,1.344c1.072,0,2.02-0.268,2.842-0.805c0.82-0.536,1.627-1.336,2.422-2.397l0.916,0.676
				c-0.857,1.309-1.932,2.355-3.219,3.138c-1.287,0.783-2.623,1.175-4.006,1.175c-1.9,0-3.352-0.531-4.354-1.595
				c-1.004-1.062-1.506-2.571-1.506-4.526c0-1.353,0.213-2.645,0.637-3.874s1.043-2.354,1.857-3.375
				c0.795-0.999,1.768-1.804,2.922-2.416c1.152-0.612,2.428-0.918,3.822-0.918c1.545,0,2.689,0.313,3.436,0.942
				S604.393,198.291,604.393,199.268z M601.432,198.873c0-0.418-0.061-0.747-0.178-0.987c-0.117-0.241-0.268-0.421-0.451-0.538
				c-0.193-0.129-0.396-0.209-0.611-0.241s-0.434-0.048-0.66-0.048c-1.287,0-2.475,0.706-3.564,2.119
				c-1.088,1.413-1.777,3.175-2.068,5.283c0.752-0.106,1.6-0.259,2.543-0.457c0.945-0.198,1.729-0.458,2.35-0.779
				c0.891-0.46,1.555-1.052,1.988-1.774S601.432,199.868,601.432,198.873z"/>
			<path fill="#FFFFFF" d="M609.912,212.507c-1.02,0-1.766-0.207-2.236-0.619c-0.473-0.413-0.709-1.006-0.709-1.778
				c0-0.247,0.016-0.48,0.049-0.7c0.031-0.22,0.074-0.47,0.129-0.749l2.508-10.75h-2.879l0.34-1.465h2.938l1.123-4.715h2.895
				l-1.09,4.715h4.48l-0.336,1.465h-4.443l-2.076,8.867c-0.098,0.408-0.178,0.803-0.242,1.184s-0.096,0.705-0.096,0.974
				c0,0.59,0.146,1.021,0.441,1.295s0.83,0.41,1.602,0.41c0.279,0,0.672-0.034,1.176-0.104c0.504-0.069,0.896-0.158,1.176-0.266
				l-0.273,1.175c-0.752,0.29-1.461,0.539-2.125,0.749C611.596,212.403,610.812,212.507,609.912,212.507z"/>
			<path fill="#FFFFFF" d="M623.639,212.62c-1.877,0-3.359-0.547-4.449-1.643c-1.088-1.096-1.633-2.652-1.633-4.672
				c0-1.342,0.207-2.628,0.619-3.858c0.412-1.229,0.99-2.321,1.73-3.277s1.676-1.737,2.809-2.344c1.131-0.607,2.389-0.91,3.773-0.91
				c1.533,0,2.701,0.324,3.5,0.974c0.799,0.648,1.199,1.467,1.199,2.454c0,0.74-0.174,1.39-0.523,1.947
				c-0.348,0.558-0.871,0.837-1.568,0.837c-0.58,0-1.014-0.145-1.305-0.434c-0.289-0.288-0.434-0.609-0.434-0.962
				c0-0.343,0.115-0.811,0.348-1.404c0.232-0.593,0.416-1.072,0.553-1.436c-0.117-0.289-0.381-0.5-0.787-0.634
				c-0.408-0.134-0.832-0.2-1.271-0.2c-1.461,0-2.719,0.85-3.775,2.551c-1.057,1.7-1.584,3.784-1.584,6.252
				c0,1.523,0.34,2.733,1.023,3.629c0.682,0.896,1.604,1.344,2.764,1.344c1.043,0,1.971-0.278,2.781-0.837
				c0.811-0.558,1.588-1.346,2.33-2.365l0.918,0.676c-0.74,1.169-1.746,2.181-3.018,3.033
				C626.367,212.194,625.035,212.62,623.639,212.62z"/>
			<path fill="#FFFFFF" d="M649.02,210.302l-0.242,1.03c-0.967,0.387-1.719,0.668-2.256,0.845c-0.537,0.178-1.078,0.266-1.627,0.266
				c-0.859,0-1.504-0.223-1.934-0.669c-0.428-0.445-0.643-0.995-0.643-1.65c0-0.237,0.021-0.497,0.064-0.782
				c0.041-0.284,0.111-0.62,0.209-1.007l1.576-6.009c0.117-0.462,0.211-0.881,0.281-1.257s0.104-0.677,0.104-0.902
				c0-0.72-0.17-1.289-0.512-1.708c-0.34-0.419-0.846-0.628-1.518-0.628c-0.68,0-1.418,0.22-2.211,0.661
				c-0.793,0.44-1.545,1.059-2.258,1.854l-2.734,11.824h-3.006l4.791-20.727c0.053-0.247,0.1-0.456,0.137-0.628
				s0.057-0.354,0.057-0.548c0-0.386-0.064-0.684-0.193-0.894c-0.129-0.209-0.312-0.367-0.549-0.475
				c-0.205-0.097-0.486-0.161-0.842-0.193s-0.711-0.07-1.066-0.113l0.225-0.981l5.988-0.354l0.162,0.24l-2.57,11.124h0.062
				c1.102-0.892,2.084-1.565,2.949-2.021c0.865-0.457,1.85-0.685,2.949-0.685c1.025,0,1.826,0.298,2.404,0.894
				c0.576,0.597,0.865,1.378,0.865,2.345c0,0.193-0.029,0.537-0.088,1.031c-0.061,0.494-0.154,0.982-0.283,1.466l-1.354,5.171
				c-0.086,0.345-0.176,0.739-0.273,1.185c-0.096,0.446-0.145,0.792-0.145,1.039c0,0.612,0.135,1.028,0.402,1.249
				c0.268,0.22,0.709,0.33,1.32,0.33c0.205,0,0.496-0.035,0.877-0.104C648.523,210.451,648.814,210.377,649.02,210.302z"/>
		</g>
	</g>
	<g>
		<circle fill="#D40B6B" cx="458.446" cy="502.046" r="113.298"/>
		<g enable-background="new    ">
			<path fill="#FFFFFF" d="M427.524,496.967c0,2.178-0.424,4.154-1.271,5.93s-1.958,3.248-3.332,4.418
				c-1.427,1.213-3.017,2.129-4.771,2.752c-1.754,0.621-3.592,0.934-5.512,0.934h-9.962l0.241-1.062c0.279,0,0.674-0.027,1.184-0.08
				c0.509-0.055,0.871-0.123,1.086-0.209c0.386-0.15,0.679-0.363,0.877-0.637s0.335-0.598,0.41-0.973l3.799-16.432
				c0.032-0.129,0.062-0.271,0.088-0.428c0.027-0.154,0.041-0.281,0.041-0.377c0-0.236-0.041-0.443-0.121-0.619
				c-0.08-0.178-0.244-0.326-0.491-0.443c-0.278-0.129-0.622-0.238-1.029-0.33c-0.408-0.092-0.72-0.152-0.934-0.186l0.241-1.062
				h9.672c0.966,0,2.017,0.137,3.154,0.412c1.137,0.273,2.199,0.742,3.187,1.408c1.041,0.697,1.875,1.627,2.503,2.791
				C427.21,493.938,427.524,495.336,427.524,496.967z M423.742,496.988c0-2.404-0.645-4.273-1.933-5.605
				c-1.289-1.33-3.002-1.996-5.139-1.996c-0.44,0-0.897,0.008-1.369,0.023c-0.473,0.016-0.844,0.029-1.111,0.041l-4.083,17.73
				c-0.032,0.152-0.059,0.297-0.08,0.438c-0.021,0.139-0.032,0.273-0.032,0.402c0,0.645,0.268,1.098,0.805,1.361
				c0.536,0.262,1.416,0.395,2.64,0.395c1.6,0,3.056-0.365,4.371-1.096c1.314-0.73,2.406-1.703,3.275-2.916
				c0.891-1.256,1.556-2.625,1.996-4.107C423.522,500.178,423.742,498.621,423.742,496.988z"/>
			<path fill="#FFFFFF" d="M436.697,509.246l-0.241,1.029c-0.987,0.396-1.775,0.674-2.365,0.828
				c-0.591,0.156-1.095,0.234-1.514,0.234c-0.858,0-1.502-0.223-1.931-0.67c-0.43-0.445-0.644-0.996-0.644-1.65
				c0-0.246,0.021-0.504,0.064-0.773c0.042-0.268,0.112-0.607,0.209-1.016l1.7-6.846c0.086-0.377,0.169-0.779,0.249-1.209
				s0.121-0.795,0.121-1.096c0-0.602-0.1-1.002-0.298-1.199c-0.198-0.199-0.603-0.299-1.213-0.299c-0.235,0-0.549,0.037-0.939,0.113
				c-0.391,0.074-0.688,0.139-0.892,0.191l0.241-1.029c0.837-0.375,1.587-0.654,2.252-0.836c0.665-0.184,1.19-0.273,1.577-0.273
				c0.879,0,1.518,0.209,1.914,0.627c0.396,0.42,0.595,0.982,0.595,1.691c0,0.193-0.021,0.457-0.064,0.791
				c-0.043,0.332-0.107,0.666-0.192,0.998l-1.711,6.848c-0.106,0.418-0.199,0.83-0.279,1.232s-0.12,0.732-0.12,0.99
				c0,0.613,0.137,1.031,0.409,1.258c0.272,0.225,0.714,0.338,1.323,0.338c0.203,0,0.494-0.027,0.874-0.082
				C436.203,509.385,436.494,509.32,436.697,509.246z M437.84,488.662c0,0.611-0.198,1.145-0.595,1.602
				c-0.397,0.455-0.891,0.684-1.481,0.684c-0.547,0-1.019-0.217-1.416-0.652c-0.396-0.434-0.595-0.93-0.595-1.488
				c0-0.59,0.198-1.105,0.595-1.545c0.397-0.439,0.869-0.66,1.416-0.66c0.612,0,1.111,0.207,1.497,0.619
				C437.647,487.635,437.84,488.115,437.84,488.662z"/>
			<path fill="#FFFFFF" d="M443.457,511.482c-1.588,0-2.911-0.281-3.968-0.846c-1.057-0.562-1.585-1.301-1.585-2.213
				c0-0.428,0.155-0.83,0.467-1.207c0.312-0.375,0.692-0.562,1.143-0.562c0.429,0,0.775,0.1,1.038,0.297
				c0.263,0.199,0.47,0.434,0.62,0.701c0.16,0.279,0.303,0.611,0.426,0.998c0.123,0.385,0.229,0.703,0.314,0.949
				c0.16,0.182,0.383,0.352,0.667,0.506c0.284,0.156,0.695,0.234,1.231,0.234c1.159,0,2.036-0.291,2.632-0.871
				c0.595-0.582,0.893-1.367,0.893-2.355c0-0.73-0.279-1.314-0.837-1.75s-1.39-0.836-2.494-1.201
				c-0.397-0.129-0.864-0.324-1.4-0.588s-0.966-0.547-1.287-0.848c-0.387-0.344-0.697-0.752-0.934-1.225s-0.354-1.033-0.354-1.678
				c0-1.375,0.614-2.566,1.843-3.572c1.229-1.004,2.739-1.506,4.53-1.506c0.419,0,0.869,0.021,1.353,0.062
				c0.482,0.045,1.014,0.162,1.593,0.355c0.504,0.172,0.934,0.426,1.288,0.764c0.354,0.338,0.53,0.775,0.53,1.312
				c0,0.439-0.147,0.84-0.442,1.199s-0.684,0.539-1.167,0.539c-0.396,0-0.724-0.086-0.981-0.258s-0.472-0.402-0.644-0.693
				c-0.172-0.289-0.312-0.6-0.418-0.932c-0.107-0.334-0.226-0.66-0.354-0.982c-0.204-0.086-0.387-0.145-0.547-0.178
				c-0.161-0.031-0.376-0.047-0.645-0.047c-1.051,0-1.848,0.281-2.39,0.846s-0.812,1.234-0.812,2.01c0,0.752,0.244,1.32,0.732,1.701
				s1.295,0.777,2.422,1.186c1.459,0.525,2.519,1.129,3.179,1.805c0.659,0.678,0.989,1.518,0.989,2.516
				c0,1.635-0.627,2.965-1.883,3.992C446.949,510.969,445.366,511.482,443.457,511.482z"/>
			<path fill="#FFFFFF" d="M459.002,511.449c-1.877,0-3.36-0.547-4.449-1.643s-1.634-2.652-1.634-4.672
				c0-1.342,0.207-2.627,0.62-3.857c0.412-1.23,0.989-2.322,1.729-3.277c0.74-0.957,1.677-1.738,2.809-2.344
				c1.132-0.607,2.39-0.91,3.773-0.91c1.534,0,2.701,0.324,3.501,0.973c0.799,0.648,1.198,1.467,1.198,2.455
				c0,0.74-0.174,1.389-0.522,1.947c-0.349,0.557-0.872,0.836-1.569,0.836c-0.579,0-1.014-0.145-1.304-0.434
				c-0.289-0.287-0.435-0.609-0.435-0.961c0-0.344,0.116-0.811,0.348-1.404c0.232-0.594,0.417-1.072,0.554-1.436
				c-0.118-0.289-0.381-0.5-0.788-0.635c-0.408-0.133-0.832-0.199-1.271-0.199c-1.46,0-2.718,0.85-3.774,2.551
				c-1.057,1.699-1.585,3.783-1.585,6.252c0,1.523,0.341,2.732,1.023,3.629s1.604,1.344,2.765,1.344c1.042,0,1.97-0.279,2.781-0.838
				c0.811-0.557,1.587-1.346,2.329-2.365l0.919,0.676c-0.74,1.17-1.746,2.182-3.018,3.033
				C461.73,511.023,460.397,511.449,459.002,511.449z"/>
			<path fill="#FFFFFF" d="M478.172,508.746h-0.097c-0.493,0.396-0.966,0.762-1.416,1.094c-0.451,0.334-0.896,0.613-1.336,0.838
				c-0.516,0.258-0.982,0.443-1.4,0.555c-0.419,0.113-0.967,0.17-1.643,0.17c-1.03,0-1.829-0.299-2.398-0.895
				c-0.568-0.594-0.853-1.375-0.853-2.34c0-0.258,0.021-0.564,0.064-0.918c0.042-0.354,0.144-0.879,0.305-1.578l1.25-5.102
				c0.106-0.471,0.194-0.891,0.265-1.254c0.069-0.365,0.104-0.715,0.104-1.047c0-0.602-0.1-1-0.297-1.199
				c-0.198-0.197-0.603-0.297-1.213-0.297c-0.235,0-0.535,0.045-0.899,0.135s-0.647,0.162-0.851,0.219l0.241-1.037
				c0.837-0.379,1.574-0.664,2.213-0.859c0.638-0.195,1.15-0.293,1.536-0.293c0.858,0,1.489,0.201,1.892,0.604
				s0.604,0.975,0.604,1.715c0,0.193-0.021,0.455-0.064,0.789c-0.043,0.332-0.107,0.664-0.193,0.998l-1.42,5.953
				c-0.106,0.451-0.194,0.873-0.265,1.264c-0.069,0.393-0.104,0.689-0.104,0.893c0,0.721,0.155,1.289,0.466,1.707
				c0.312,0.418,0.805,0.627,1.479,0.627c0.687,0,1.391-0.18,2.114-0.539s1.45-0.904,2.179-1.633l2.802-12.119l2.808-0.193
				l0.193,0.242l-2.393,10.363c-0.107,0.441-0.203,0.883-0.289,1.328s-0.129,0.76-0.129,0.941c0,0.611,0.132,1.027,0.394,1.248
				c0.263,0.219,0.699,0.33,1.31,0.33c0.203,0,0.492-0.033,0.867-0.098s0.664-0.133,0.868-0.209l-0.242,1.031
				c-0.89,0.363-1.633,0.637-2.228,0.82c-0.596,0.182-1.146,0.273-1.649,0.273c-0.869,0-1.516-0.252-1.938-0.756
				C478.384,510.012,478.172,509.422,478.172,508.746z"/>
			<path fill="#FFFFFF" d="M491.576,511.482c-1.588,0-2.911-0.281-3.968-0.846c-1.057-0.562-1.585-1.301-1.585-2.213
				c0-0.428,0.155-0.83,0.467-1.207c0.312-0.375,0.692-0.562,1.143-0.562c0.429,0,0.775,0.1,1.038,0.297
				c0.263,0.199,0.47,0.434,0.62,0.701c0.16,0.279,0.303,0.611,0.426,0.998c0.123,0.385,0.229,0.703,0.314,0.949
				c0.16,0.182,0.383,0.352,0.667,0.506c0.284,0.156,0.695,0.234,1.231,0.234c1.159,0,2.036-0.291,2.632-0.871
				c0.595-0.582,0.893-1.367,0.893-2.355c0-0.73-0.279-1.314-0.837-1.75s-1.39-0.836-2.494-1.201
				c-0.397-0.129-0.864-0.324-1.4-0.588s-0.966-0.547-1.287-0.848c-0.387-0.344-0.697-0.752-0.934-1.225s-0.354-1.033-0.354-1.678
				c0-1.375,0.614-2.566,1.843-3.572c1.229-1.004,2.739-1.506,4.53-1.506c0.419,0,0.869,0.021,1.353,0.062
				c0.482,0.045,1.014,0.162,1.593,0.355c0.504,0.172,0.934,0.426,1.288,0.764c0.354,0.338,0.53,0.775,0.53,1.312
				c0,0.439-0.147,0.84-0.442,1.199s-0.684,0.539-1.167,0.539c-0.396,0-0.724-0.086-0.981-0.258s-0.472-0.402-0.644-0.693
				c-0.172-0.289-0.312-0.6-0.418-0.932c-0.107-0.334-0.226-0.66-0.354-0.982c-0.204-0.086-0.387-0.145-0.547-0.178
				c-0.161-0.031-0.376-0.047-0.645-0.047c-1.051,0-1.848,0.281-2.39,0.846s-0.812,1.234-0.812,2.01c0,0.752,0.244,1.32,0.732,1.701
				s1.295,0.777,2.422,1.186c1.459,0.525,2.519,1.129,3.179,1.805c0.659,0.678,0.989,1.518,0.989,2.516
				c0,1.635-0.627,2.965-1.883,3.992C495.068,510.969,493.485,511.482,491.576,511.482z"/>
			<path fill="#FFFFFF" d="M505.787,511.482c-1.588,0-2.911-0.281-3.968-0.846c-1.057-0.562-1.585-1.301-1.585-2.213
				c0-0.428,0.155-0.83,0.467-1.207c0.312-0.375,0.692-0.562,1.143-0.562c0.429,0,0.775,0.1,1.038,0.297
				c0.263,0.199,0.47,0.434,0.62,0.701c0.16,0.279,0.303,0.611,0.426,0.998c0.123,0.385,0.229,0.703,0.314,0.949
				c0.16,0.182,0.383,0.352,0.667,0.506c0.284,0.156,0.695,0.234,1.231,0.234c1.159,0,2.036-0.291,2.632-0.871
				c0.595-0.582,0.893-1.367,0.893-2.355c0-0.73-0.279-1.314-0.837-1.75s-1.39-0.836-2.494-1.201
				c-0.397-0.129-0.864-0.324-1.4-0.588s-0.966-0.547-1.287-0.848c-0.387-0.344-0.697-0.752-0.934-1.225s-0.354-1.033-0.354-1.678
				c0-1.375,0.614-2.566,1.843-3.572c1.229-1.004,2.739-1.506,4.53-1.506c0.419,0,0.869,0.021,1.353,0.062
				c0.482,0.045,1.014,0.162,1.593,0.355c0.504,0.172,0.934,0.426,1.288,0.764c0.354,0.338,0.53,0.775,0.53,1.312
				c0,0.439-0.147,0.84-0.442,1.199s-0.684,0.539-1.167,0.539c-0.396,0-0.724-0.086-0.981-0.258s-0.472-0.402-0.644-0.693
				c-0.172-0.289-0.312-0.6-0.418-0.932c-0.107-0.334-0.226-0.66-0.354-0.982c-0.204-0.086-0.387-0.145-0.547-0.178
				c-0.161-0.031-0.376-0.047-0.645-0.047c-1.051,0-1.848,0.281-2.39,0.846s-0.812,1.234-0.812,2.01c0,0.752,0.244,1.32,0.732,1.701
				s1.295,0.777,2.422,1.186c1.459,0.525,2.519,1.129,3.179,1.805c0.659,0.678,0.989,1.518,0.989,2.516
				c0,1.635-0.627,2.965-1.883,3.992C509.279,510.969,507.696,511.482,505.787,511.482z"/>
		</g>
	</g>
	<g>
		<circle fill="#D40B6B" cx="173.559" cy="616.114" r="113.298"/>
		<g enable-background="new    ">
			<path fill="#FFFFFF" d="M121.562,606.834c0,1.299-0.287,2.457-0.861,3.477c-0.576,1.02-1.314,1.867-2.217,2.543
				c-0.945,0.707-2.004,1.242-3.175,1.602s-2.396,0.539-3.675,0.539h-2.789l-1.629,7.047c-0.021,0.098-0.038,0.199-0.048,0.307
				c-0.011,0.107-0.016,0.199-0.016,0.273c0,0.236,0.042,0.445,0.128,0.629c0.086,0.182,0.258,0.326,0.515,0.434
				c0.161,0.076,0.485,0.145,0.974,0.209s0.926,0.104,1.312,0.113l-0.242,1.062h-9.809l0.241-1.062
				c0.268-0.021,0.649-0.059,1.143-0.113c0.493-0.053,0.853-0.123,1.078-0.209c0.386-0.15,0.678-0.367,0.877-0.652
				c0.198-0.283,0.335-0.613,0.411-0.988l3.846-16.641c0.021-0.098,0.041-0.205,0.057-0.322s0.024-0.23,0.024-0.338
				c0-0.227-0.043-0.43-0.129-0.611c-0.086-0.184-0.247-0.322-0.482-0.418c-0.344-0.129-0.708-0.227-1.095-0.291
				s-0.74-0.107-1.062-0.129l0.242-1.062h10.164c1.836,0,3.332,0.412,4.488,1.232C120.986,604.283,121.562,605.408,121.562,606.834z
				 M116.413,611.191c0.44-0.635,0.751-1.309,0.934-2.023s0.274-1.383,0.274-2.006c0-0.494-0.068-0.963-0.202-1.402
				c-0.134-0.441-0.362-0.838-0.685-1.193c-0.323-0.344-0.736-0.615-1.241-0.814c-0.505-0.197-1.139-0.297-1.902-0.297h-2.095
				l-2.329,10.219h1.82c1.245,0,2.318-0.207,3.22-0.621C115.108,612.639,115.844,612.02,116.413,611.191z"/>
			<path fill="#FFFFFF" d="M135.903,611.438c0,0.299-0.043,0.629-0.129,0.988s-0.209,0.658-0.37,0.895
				c-0.193,0.289-0.405,0.512-0.636,0.668c-0.231,0.154-0.561,0.232-0.99,0.232c-0.579,0-1.014-0.145-1.304-0.434
				c-0.289-0.291-0.435-0.611-0.435-0.967c0-0.332,0.081-0.705,0.242-1.117c0.16-0.414,0.327-0.824,0.499-1.232
				c-0.129,0-0.341,0.035-0.636,0.105s-0.65,0.207-1.068,0.41c-0.417,0.205-0.891,0.512-1.42,0.92
				c-0.53,0.408-1.095,0.951-1.693,1.627l-2.594,11.535h-3.002l2.348-10.441c0.054-0.258,0.131-0.645,0.233-1.16
				c0.102-0.516,0.152-0.896,0.152-1.143c0-0.602-0.102-1.004-0.306-1.209c-0.203-0.203-0.61-0.307-1.222-0.307
				c-0.236,0-0.536,0.041-0.9,0.121c-0.365,0.08-0.649,0.148-0.853,0.201l0.241-1.029c0.837-0.377,1.577-0.654,2.221-0.838
				c0.644-0.182,1.196-0.273,1.657-0.273c0.858,0,1.47,0.234,1.835,0.701c0.364,0.467,0.547,1.168,0.547,2.102h0.097
				c1.276-1.105,2.245-1.879,2.905-2.318c0.659-0.441,1.349-0.66,2.067-0.66c0.344,0,0.677,0.043,0.998,0.127
				c0.322,0.086,0.596,0.232,0.821,0.436c0.235,0.225,0.41,0.486,0.523,0.781C135.847,610.453,135.903,610.879,135.903,611.438z"/>
			<path fill="#FFFFFF" d="M152.382,615.145c0,1.268-0.214,2.535-0.644,3.801c-0.429,1.268-1.052,2.379-1.866,3.336
				c-0.826,0.988-1.821,1.779-2.985,2.375c-1.165,0.596-2.514,0.895-4.048,0.895c-1.781,0-3.227-0.574-4.337-1.723
				c-1.11-1.15-1.666-2.697-1.666-4.641c0-1.428,0.236-2.76,0.708-3.994c0.473-1.236,1.105-2.32,1.899-3.254
				c0.805-0.936,1.8-1.689,2.985-2.264s2.47-0.861,3.854-0.861c1.909,0,3.403,0.582,4.481,1.746
				C151.843,611.727,152.382,613.254,152.382,615.145z M149.1,614.531c0-1.525-0.271-2.668-0.813-3.432
				c-0.541-0.762-1.322-1.143-2.341-1.143c-0.891,0-1.73,0.273-2.519,0.82c-0.789,0.549-1.468,1.439-2.036,2.676
				c-0.44,0.934-0.762,1.973-0.966,3.117s-0.306,2.199-0.306,3.166c0,1.535,0.266,2.699,0.797,3.488s1.333,1.184,2.405,1.184
				c0.955,0,1.803-0.301,2.543-0.902s1.341-1.363,1.803-2.287c0.461-0.902,0.815-1.938,1.062-3.102
				C148.976,616.951,149.1,615.756,149.1,614.531z"/>
			<path fill="#FFFFFF" d="M158.336,625.406c-1.02,0-1.765-0.207-2.236-0.619c-0.473-0.414-0.708-1.006-0.708-1.779
				c0-0.246,0.016-0.48,0.048-0.699c0.032-0.221,0.075-0.471,0.129-0.75l2.509-10.75h-2.879l0.339-1.465h2.938l1.123-4.715h2.895
				l-1.089,4.715h4.48l-0.336,1.465h-4.443l-2.077,8.867c-0.097,0.408-0.177,0.803-0.241,1.184s-0.097,0.705-0.097,0.975
				c0,0.59,0.147,1.021,0.442,1.295s0.829,0.41,1.602,0.41c0.279,0,0.671-0.035,1.176-0.105c0.504-0.068,0.896-0.158,1.175-0.266
				l-0.273,1.176c-0.751,0.289-1.46,0.539-2.125,0.748S159.237,625.406,158.336,625.406z"/>
			<path fill="#FFFFFF" d="M181.526,615.145c0,1.268-0.214,2.535-0.644,3.801c-0.429,1.268-1.052,2.379-1.866,3.336
				c-0.826,0.988-1.821,1.779-2.985,2.375c-1.165,0.596-2.514,0.895-4.048,0.895c-1.781,0-3.227-0.574-4.337-1.723
				c-1.11-1.15-1.666-2.697-1.666-4.641c0-1.428,0.236-2.76,0.708-3.994c0.473-1.236,1.105-2.32,1.899-3.254
				c0.805-0.936,1.8-1.689,2.985-2.264s2.47-0.861,3.854-0.861c1.909,0,3.403,0.582,4.481,1.746
				C180.987,611.727,181.526,613.254,181.526,615.145z M178.244,614.531c0-1.525-0.271-2.668-0.813-3.432
				c-0.541-0.762-1.322-1.143-2.341-1.143c-0.891,0-1.73,0.273-2.519,0.82c-0.789,0.549-1.468,1.439-2.036,2.676
				c-0.44,0.934-0.762,1.973-0.966,3.117s-0.306,2.199-0.306,3.166c0,1.535,0.266,2.699,0.797,3.488s1.333,1.184,2.405,1.184
				c0.955,0,1.803-0.301,2.543-0.902s1.341-1.363,1.803-2.287c0.461-0.902,0.815-1.938,1.062-3.102
				C178.12,616.951,178.244,615.756,178.244,614.531z"/>
			<path fill="#FFFFFF" d="M187.481,625.406c-1.02,0-1.765-0.207-2.236-0.619c-0.473-0.414-0.708-1.006-0.708-1.779
				c0-0.246,0.016-0.48,0.048-0.699c0.032-0.221,0.075-0.471,0.129-0.75l2.509-10.75h-2.879l0.339-1.465h2.938l1.123-4.715h2.895
				l-1.089,4.715h4.48l-0.336,1.465h-4.443l-2.077,8.867c-0.097,0.408-0.177,0.803-0.241,1.184s-0.097,0.705-0.097,0.975
				c0,0.59,0.147,1.021,0.442,1.295s0.829,0.41,1.602,0.41c0.279,0,0.671-0.035,1.176-0.105c0.504-0.068,0.896-0.158,1.175-0.266
				l-0.273,1.176c-0.751,0.289-1.46,0.539-2.125,0.748S188.383,625.406,187.481,625.406z"/>
			<path fill="#FFFFFF" d="M205.592,622.734h-0.097c-0.987,0.826-1.927,1.475-2.817,1.947c-0.892,0.473-1.906,0.709-3.044,0.709
				c-1.03,0-1.847-0.299-2.447-0.895c-0.602-0.596-0.901-1.375-0.901-2.342c0-0.256,0.021-0.562,0.064-0.916
				c0.042-0.355,0.145-0.881,0.305-1.578l1.252-5.021c0.118-0.482,0.209-0.902,0.273-1.262s0.097-0.707,0.097-1.039
				c0-0.602-0.1-1-0.298-1.199c-0.198-0.197-0.603-0.297-1.214-0.297c-0.235,0-0.535,0.045-0.899,0.135s-0.648,0.162-0.852,0.219
				l0.241-1.037c0.837-0.379,1.574-0.664,2.213-0.859s1.15-0.293,1.537-0.293c0.858,0,1.494,0.193,1.907,0.58
				s0.619,0.965,0.619,1.738c0,0.193-0.021,0.455-0.064,0.789c-0.043,0.332-0.106,0.664-0.192,0.998l-1.46,5.873
				c-0.107,0.451-0.198,0.871-0.273,1.264s-0.112,0.689-0.112,0.893c0,0.719,0.175,1.287,0.523,1.707
				c0.35,0.418,0.862,0.627,1.54,0.627c0.784,0,1.551-0.193,2.298-0.58c0.747-0.385,1.448-0.916,2.104-1.592l2.66-12.039
				l2.779-0.193l0.192,0.242l-2.766,12.602c-0.409,1.846-0.931,3.422-1.563,4.73s-1.373,2.367-2.221,3.17
				c-0.891,0.848-1.851,1.459-2.881,1.836c-1.03,0.375-2.205,0.562-3.524,0.562c-0.912,0-1.637-0.064-2.173-0.193
				s-0.96-0.305-1.271-0.531c-0.312-0.215-0.521-0.455-0.628-0.723c-0.107-0.27-0.16-0.537-0.16-0.805
				c0-0.463,0.139-0.869,0.418-1.225c0.279-0.354,0.682-0.529,1.208-0.529c0.396,0,0.735,0.111,1.014,0.338
				c0.279,0.225,0.505,0.471,0.677,0.74c0.193,0.289,0.37,0.615,0.531,0.98s0.29,0.654,0.387,0.869h0.386
				c0.612,0,1.259-0.15,1.94-0.451c0.682-0.299,1.307-0.766,1.876-1.398c0.611-0.688,1.162-1.572,1.65-2.656
				S205.302,624.248,205.592,622.734z"/>
			<path fill="#FFFFFF" d="M230.419,614.967c0,1.439-0.252,2.803-0.755,4.092c-0.504,1.289-1.174,2.406-2.01,3.352
				c-0.933,1.041-1.942,1.814-3.03,2.318c-1.088,0.506-2.205,0.758-3.352,0.758c-0.922,0-1.678-0.113-2.267-0.338
				c-0.59-0.227-1.115-0.506-1.575-0.838l-0.939,4.217c-0.064,0.268-0.116,0.52-0.153,0.756c-0.038,0.236-0.057,0.424-0.057,0.564
				c0,0.289,0.104,0.52,0.314,0.691c0.209,0.172,0.447,0.295,0.716,0.371c0.269,0.086,0.568,0.15,0.901,0.193
				c0.332,0.043,0.633,0.074,0.901,0.096l-0.226,1.014h-8.876l0.226-1.014c0.344-0.021,0.665-0.049,0.966-0.08
				c0.3-0.033,0.585-0.086,0.853-0.162c0.333-0.096,0.598-0.275,0.797-0.539c0.198-0.264,0.34-0.588,0.427-0.975l3.358-14.816
				c0.086-0.408,0.167-0.82,0.242-1.232c0.074-0.414,0.112-0.771,0.112-1.072c0-0.6-0.094-1.004-0.281-1.207
				c-0.188-0.203-0.593-0.307-1.214-0.307c-0.235,0-0.536,0.047-0.899,0.137c-0.365,0.092-0.648,0.164-0.853,0.219l0.242-1.031
				c0.815-0.363,1.55-0.646,2.205-0.844c0.654-0.199,1.212-0.299,1.674-0.299c0.751,0,1.32,0.191,1.706,0.572
				c0.387,0.381,0.628,0.91,0.725,1.586h0.129c0.729-0.676,1.51-1.234,2.341-1.674c0.832-0.441,1.66-0.66,2.486-0.66
				c1.631,0,2.899,0.555,3.806,1.666S230.419,613.088,230.419,614.967z M225.399,621.621c0.547-0.881,0.968-1.883,1.263-3.006
				c0.294-1.123,0.442-2.311,0.442-3.568c0-0.568-0.052-1.141-0.153-1.717c-0.103-0.574-0.266-1.049-0.491-1.426
				c-0.235-0.418-0.558-0.742-0.965-0.975c-0.408-0.23-0.944-0.346-1.609-0.346c-0.493,0-1.038,0.15-1.633,0.451
				c-0.596,0.301-1.322,0.865-2.181,1.691l-2.054,9.135c0.074,0.613,0.404,1.186,0.988,1.717c0.585,0.531,1.289,0.797,2.115,0.797
				c0.847,0,1.64-0.246,2.38-0.74C224.241,623.141,224.874,622.469,225.399,621.621z"/>
			<path fill="#FFFFFF" d="M246.448,612.166c0,1.139-0.356,2.117-1.07,2.934c-0.714,0.818-1.751,1.469-3.114,1.951
				c-0.997,0.365-2.006,0.662-3.025,0.887c-1.02,0.227-2.146,0.414-3.379,0.564c0,1.695,0.313,2.99,0.941,3.887
				c0.627,0.896,1.547,1.344,2.76,1.344c1.072,0,2.02-0.268,2.841-0.805c0.82-0.537,1.628-1.336,2.422-2.398l0.917,0.676
				c-0.858,1.309-1.932,2.355-3.219,3.139s-2.623,1.174-4.007,1.174c-1.899,0-3.351-0.531-4.354-1.594s-1.505-2.572-1.505-4.527
				c0-1.352,0.212-2.645,0.636-3.873c0.424-1.23,1.043-2.355,1.858-3.375c0.794-1,1.768-1.805,2.921-2.416
				c1.153-0.613,2.428-0.918,3.822-0.918c1.545,0,2.69,0.312,3.437,0.941C246.075,610.385,246.448,611.189,246.448,612.166z
				 M243.487,611.771c0-0.418-0.06-0.748-0.177-0.988c-0.118-0.24-0.269-0.42-0.451-0.537c-0.193-0.129-0.396-0.209-0.611-0.242
				c-0.215-0.031-0.435-0.047-0.66-0.047c-1.287,0-2.476,0.705-3.564,2.119c-1.089,1.412-1.778,3.174-2.068,5.283
				c0.751-0.107,1.599-0.26,2.543-0.457c0.944-0.199,1.728-0.459,2.35-0.779c0.891-0.461,1.554-1.053,1.987-1.775
				C243.27,613.625,243.487,612.766,243.487,611.771z"/>
		</g>
	</g>
	<g>
		<circle fill="#D40B6B" cx="-166.8" cy="547.724" r="113.298"/>
		<g enable-background="new    ">
			<path fill="#FFFFFF" d="M-173.971,533.837l-1.433,6.196h-1.11c-0.011-0.375-0.062-0.853-0.152-1.433
				c-0.091-0.579-0.222-1.1-0.393-1.561c-0.182-0.493-0.419-0.918-0.713-1.271c-0.294-0.354-0.645-0.563-1.051-0.628
				c-0.321-0.043-0.729-0.074-1.227-0.097c-0.497-0.021-0.959-0.032-1.387-0.032h-1.011l-4.26,18.43
				c-0.021,0.084-0.038,0.178-0.048,0.279c-0.011,0.103-0.016,0.201-0.016,0.298c0,0.258,0.048,0.47,0.145,0.636
				c0.097,0.166,0.279,0.313,0.547,0.442c0.215,0.086,0.604,0.19,1.167,0.313c0.563,0.124,1.022,0.191,1.376,0.201l-0.257,1.062
				h-10.792l0.257-1.062c0.322-0.021,0.789-0.064,1.4-0.128c0.611-0.064,1.057-0.146,1.335-0.242
				c0.429-0.16,0.751-0.381,0.966-0.659c0.214-0.279,0.365-0.612,0.451-0.998l4.293-18.572h-0.854c-0.322,0-0.726,0.009-1.208,0.024
				c-0.484,0.017-0.978,0.051-1.483,0.104c-0.354,0.043-0.768,0.255-1.241,0.636c-0.473,0.381-0.945,0.829-1.418,1.344
				c-0.452,0.505-0.86,1.017-1.225,1.537s-0.65,0.979-0.854,1.376h-1.126l1.432-6.196H-173.971z"/>
			<path fill="#FFFFFF" d="M-162.095,543.772c0,1.139-0.356,2.117-1.07,2.934c-0.714,0.817-1.752,1.468-3.114,1.951
				c-0.998,0.365-2.006,0.661-3.025,0.887c-1.02,0.226-2.146,0.413-3.38,0.563c0,1.695,0.314,2.991,0.941,3.887
				c0.628,0.896,1.547,1.344,2.76,1.344c1.073,0,2.02-0.268,2.84-0.805c0.821-0.536,1.628-1.336,2.422-2.397l0.917,0.676
				c-0.858,1.309-1.931,2.355-3.219,3.138c-1.288,0.783-2.623,1.175-4.007,1.175c-1.899,0-3.35-0.531-4.353-1.595
				c-1.003-1.062-1.505-2.571-1.505-4.526c0-1.353,0.212-2.645,0.636-3.874s1.043-2.354,1.859-3.375
				c0.794-0.999,1.768-1.804,2.921-2.416s2.427-0.918,3.822-0.918c1.545,0,2.69,0.313,3.436,0.942
				C-162.467,541.991-162.095,542.795-162.095,543.772z M-165.056,543.377c0-0.418-0.059-0.747-0.177-0.987
				c-0.118-0.241-0.268-0.421-0.451-0.538c-0.193-0.129-0.397-0.209-0.611-0.241c-0.215-0.032-0.435-0.048-0.66-0.048
				c-1.288,0-2.476,0.706-3.565,2.119s-1.778,3.175-2.068,5.283c0.751-0.106,1.599-0.259,2.542-0.457
				c0.944-0.198,1.728-0.458,2.35-0.779c0.891-0.46,1.553-1.052,1.988-1.774S-165.056,544.372-165.056,543.377z"/>
			<path fill="#FFFFFF" d="M-155.625,557.156c-1.588,0-2.91-0.281-3.967-0.845c-1.057-0.563-1.585-1.301-1.585-2.213
				c0-0.429,0.156-0.831,0.467-1.207c0.311-0.375,0.692-0.563,1.143-0.563c0.429,0,0.775,0.1,1.038,0.298
				c0.263,0.199,0.469,0.433,0.62,0.7c0.161,0.279,0.303,0.611,0.426,0.998c0.124,0.386,0.228,0.703,0.314,0.949
				c0.161,0.183,0.384,0.352,0.668,0.507c0.284,0.156,0.694,0.233,1.231,0.233c1.159,0,2.036-0.29,2.631-0.871
				c0.596-0.581,0.893-1.366,0.893-2.355c0-0.73-0.279-1.314-0.836-1.749c-0.558-0.436-1.39-0.836-2.495-1.202
				c-0.397-0.129-0.864-0.324-1.4-0.588s-0.965-0.546-1.287-0.847c-0.386-0.345-0.698-0.753-0.934-1.226
				c-0.236-0.473-0.354-1.032-0.354-1.677c0-1.376,0.614-2.566,1.843-3.572c1.228-1.005,2.738-1.507,4.53-1.507
				c0.418,0,0.869,0.021,1.352,0.063c0.483,0.044,1.014,0.161,1.593,0.354c0.504,0.172,0.934,0.427,1.288,0.765
				s0.531,0.775,0.531,1.312c0,0.44-0.148,0.84-0.443,1.199s-0.684,0.539-1.167,0.539c-0.397,0-0.724-0.086-0.982-0.258
				c-0.257-0.172-0.472-0.402-0.644-0.692c-0.172-0.289-0.312-0.601-0.418-0.933c-0.107-0.333-0.225-0.66-0.354-0.982
				c-0.204-0.085-0.386-0.145-0.547-0.177c-0.161-0.032-0.375-0.048-0.644-0.048c-1.052,0-1.848,0.282-2.39,0.847
				c-0.542,0.564-0.812,1.234-0.812,2.009c0,0.753,0.244,1.32,0.732,1.701c0.488,0.382,1.295,0.777,2.422,1.186
				c1.459,0.526,2.519,1.129,3.178,1.806c0.66,0.678,0.99,1.517,0.99,2.516c0,1.634-0.627,2.965-1.883,3.991
				S-153.715,557.156-155.625,557.156z"/>
			<path fill="#FFFFFF" d="M-142.364,557.012c-1.02,0-1.765-0.207-2.237-0.619c-0.472-0.413-0.708-1.006-0.708-1.778
				c0-0.247,0.016-0.48,0.048-0.7s0.075-0.47,0.129-0.749l2.508-10.75h-2.878l0.339-1.465h2.938l1.123-4.715h2.895l-1.089,4.715
				h4.481l-0.337,1.465h-4.443l-2.077,8.867c-0.097,0.408-0.177,0.803-0.242,1.184c-0.064,0.381-0.096,0.705-0.096,0.974
				c0,0.59,0.147,1.021,0.442,1.295s0.829,0.41,1.602,0.41c0.279,0,0.67-0.034,1.175-0.104c0.504-0.069,0.896-0.158,1.175-0.266
				l-0.274,1.175c-0.751,0.29-1.459,0.539-2.124,0.749C-140.68,556.907-141.463,557.012-142.364,557.012z"/>
		</g>
	</g>
	<g>
		<circle fill="#D40B6B" cx="-368.221" cy="290.641" r="113.298"/>
		<g enable-background="new    ">
			<path fill="#FFFFFF" d="M-412.102,276.755l-0.241,1.062c-0.333,0.011-0.768,0.06-1.304,0.145
				c-0.537,0.086-0.934,0.167-1.191,0.242c-0.451,0.139-0.772,0.354-0.966,0.644c-0.193,0.289-0.333,0.608-0.418,0.955
				l-3.874,16.687c-0.021,0.073-0.038,0.157-0.048,0.254c-0.011,0.097-0.016,0.183-0.016,0.258c0,0.247,0.053,0.456,0.161,0.627
				c0.107,0.172,0.301,0.322,0.58,0.451c0.161,0.075,0.515,0.164,1.062,0.266c0.547,0.102,0.955,0.163,1.223,0.185l-0.242,1.062
				h-10.299l0.241-1.062c0.301-0.021,0.729-0.054,1.288-0.097c0.558-0.042,0.955-0.106,1.191-0.192
				c0.418-0.15,0.735-0.356,0.95-0.62c0.214-0.263,0.359-0.582,0.434-0.957l3.862-16.705c0.021-0.097,0.038-0.193,0.048-0.29
				s0.016-0.193,0.016-0.289c0-0.215-0.045-0.402-0.137-0.563s-0.282-0.306-0.571-0.435c-0.29-0.129-0.684-0.25-1.183-0.362
				s-0.866-0.18-1.102-0.201l0.241-1.062H-412.102z"/>
			<path fill="#FFFFFF" d="M-402.79,297.385h-0.112c-0.236,0.204-0.542,0.47-0.917,0.797c-0.375,0.328-0.766,0.615-1.173,0.862
				c-0.515,0.322-0.989,0.568-1.422,0.74c-0.434,0.172-0.968,0.258-1.6,0.258c-1.554,0-2.773-0.561-3.657-1.683
				c-0.884-1.122-1.326-2.65-1.326-4.583c0-1.354,0.239-2.658,0.716-3.915c0.478-1.256,1.13-2.373,1.956-3.351
				c0.805-0.945,1.774-1.71,2.906-2.295c1.132-0.586,2.315-0.878,3.55-0.878c0.74,0,1.476,0.097,2.206,0.289
				c0.729,0.193,1.331,0.431,1.803,0.709l1.257-5.473c0.064-0.289,0.11-0.515,0.137-0.676c0.026-0.16,0.04-0.338,0.04-0.53
				c0-0.387-0.078-0.682-0.233-0.886s-0.373-0.354-0.652-0.451c-0.257-0.096-0.611-0.16-1.062-0.192s-0.858-0.07-1.223-0.113
				l0.226-0.981l6.518-0.354l0.161,0.241l-4.464,19.296c-0.086,0.354-0.175,0.759-0.266,1.215s-0.137,0.802-0.137,1.038
				c0,0.611,0.129,1.027,0.386,1.247c0.258,0.22,0.692,0.33,1.304,0.33c0.204,0,0.493-0.032,0.869-0.097
				c0.375-0.064,0.665-0.134,0.869-0.209l-0.242,1.03c-0.903,0.407-1.65,0.691-2.241,0.853c-0.591,0.161-1.139,0.241-1.644,0.241
				c-0.774,0-1.389-0.201-1.846-0.604C-402.562,298.859-402.79,298.233-402.79,297.385z M-400.5,287.123
				c-0.021-0.311-0.102-0.614-0.242-0.91c-0.14-0.295-0.317-0.561-0.531-0.798c-0.247-0.269-0.567-0.491-0.959-0.668
				c-0.392-0.177-0.856-0.266-1.393-0.266c-0.827,0-1.608,0.258-2.344,0.773s-1.383,1.203-1.941,2.062
				c-0.537,0.828-0.967,1.824-1.289,2.989c-0.323,1.165-0.483,2.334-0.483,3.504c0,0.655,0.037,1.235,0.112,1.741
				c0.075,0.505,0.22,0.972,0.435,1.401c0.204,0.397,0.493,0.712,0.869,0.942c0.375,0.231,0.874,0.347,1.496,0.347
				c0.59,0,1.231-0.178,1.923-0.532s1.462-0.972,2.309-1.853L-400.5,287.123z"/>
			<path fill="#FFFFFF" d="M-380.264,286.691c0,1.139-0.356,2.117-1.07,2.934c-0.714,0.817-1.752,1.468-3.114,1.951
				c-0.998,0.365-2.006,0.661-3.025,0.887c-1.02,0.226-2.146,0.413-3.38,0.563c0,1.695,0.314,2.991,0.941,3.887
				c0.628,0.896,1.547,1.344,2.76,1.344c1.073,0,2.02-0.268,2.84-0.805c0.821-0.536,1.628-1.336,2.422-2.397l0.917,0.676
				c-0.858,1.309-1.931,2.355-3.219,3.138c-1.288,0.783-2.623,1.175-4.007,1.175c-1.899,0-3.35-0.531-4.353-1.595
				c-1.003-1.062-1.505-2.571-1.505-4.526c0-1.353,0.212-2.645,0.636-3.874s1.043-2.354,1.859-3.375
				c0.794-0.999,1.768-1.804,2.921-2.416s2.427-0.918,3.822-0.918c1.545,0,2.69,0.313,3.436,0.942
				C-380.636,284.91-380.264,285.713-380.264,286.691z M-383.225,286.295c0-0.418-0.059-0.747-0.177-0.987
				c-0.118-0.241-0.268-0.421-0.451-0.538c-0.193-0.129-0.397-0.209-0.611-0.241c-0.215-0.032-0.435-0.048-0.66-0.048
				c-1.288,0-2.476,0.706-3.565,2.119s-1.778,3.175-2.068,5.283c0.751-0.106,1.599-0.259,2.542-0.457
				c0.944-0.198,1.728-0.458,2.35-0.779c0.891-0.46,1.553-1.052,1.988-1.774S-383.225,287.291-383.225,286.295z"/>
			<path fill="#FFFFFF" d="M-361.129,297.725l-0.242,1.03c-0.969,0.387-1.723,0.668-2.261,0.845
				c-0.539,0.178-1.082,0.266-1.631,0.266c-0.862,0-1.508-0.223-1.938-0.669c-0.431-0.445-0.646-0.995-0.646-1.65
				c0-0.237,0.021-0.497,0.064-0.782c0.043-0.284,0.113-0.62,0.21-1.007l1.59-6.009c0.119-0.462,0.213-0.881,0.283-1.257
				c0.069-0.376,0.104-0.677,0.104-0.902c0-0.72-0.171-1.289-0.512-1.708c-0.341-0.419-0.847-0.628-1.517-0.628
				c-0.649,0-1.379,0.215-2.188,0.645c-0.809,0.43-1.57,1.053-2.283,1.87l-2.75,11.824h-3.006l2.413-10.44
				c0.054-0.258,0.131-0.631,0.233-1.12c0.102-0.488,0.153-0.883,0.153-1.184c0-0.602-0.102-1.004-0.306-1.208
				c-0.205-0.204-0.614-0.307-1.229-0.307c-0.237,0-0.54,0.04-0.906,0.121c-0.367,0.08-0.653,0.147-0.857,0.201l0.243-1.03
				c0.841-0.376,1.585-0.654,2.232-0.837c0.647-0.183,1.203-0.273,1.667-0.273c0.852,0,1.461,0.23,1.828,0.692
				c0.366,0.462,0.561,1.101,0.583,1.917h0.096c1.176-0.945,2.191-1.646,3.046-2.102c0.855-0.457,1.828-0.685,2.918-0.685
				c1.026,0,1.828,0.298,2.405,0.894c0.577,0.597,0.866,1.378,0.866,2.345c0,0.193-0.03,0.537-0.089,1.031s-0.153,0.982-0.281,1.466
				l-1.354,5.171c-0.097,0.345-0.191,0.739-0.282,1.185c-0.091,0.446-0.137,0.792-0.137,1.039c0,0.612,0.134,1.028,0.403,1.249
				c0.268,0.22,0.708,0.33,1.32,0.33c0.204,0,0.497-0.035,0.877-0.104C-361.625,297.874-361.333,297.8-361.129,297.725z"/>
			<path fill="#FFFFFF" d="M-355.303,299.93c-1.02,0-1.765-0.207-2.237-0.619c-0.472-0.413-0.708-1.006-0.708-1.778
				c0-0.247,0.016-0.48,0.048-0.7s0.075-0.47,0.129-0.749l2.508-10.75h-2.878l0.339-1.465h2.938l1.123-4.715h2.895l-1.089,4.715
				h4.481l-0.337,1.465h-4.443l-2.077,8.867c-0.097,0.408-0.177,0.803-0.242,1.184c-0.064,0.381-0.096,0.705-0.096,0.974
				c0,0.59,0.147,1.021,0.442,1.295s0.829,0.41,1.602,0.41c0.279,0,0.67-0.034,1.175-0.104c0.504-0.069,0.896-0.158,1.175-0.266
				l-0.274,1.175c-0.751,0.29-1.459,0.539-2.124,0.749C-353.619,299.826-354.402,299.93-355.303,299.93z"/>
			<path fill="#FFFFFF" d="M-339.869,297.838l-0.242,1.029c-0.987,0.397-1.776,0.674-2.366,0.829
				c-0.59,0.155-1.094,0.233-1.513,0.233c-0.858,0-1.502-0.223-1.931-0.669c-0.429-0.445-0.644-0.996-0.644-1.651
				c0-0.246,0.021-0.504,0.064-0.772s0.113-0.607,0.209-1.016l1.7-6.847c0.085-0.376,0.168-0.779,0.249-1.209
				s0.121-0.795,0.121-1.096c0-0.601-0.099-1.001-0.297-1.199c-0.198-0.199-0.603-0.299-1.213-0.299
				c-0.235,0-0.549,0.038-0.939,0.113c-0.391,0.075-0.688,0.14-0.892,0.192l0.241-1.029c0.836-0.376,1.587-0.654,2.252-0.837
				c0.665-0.183,1.19-0.273,1.577-0.273c0.879,0,1.518,0.209,1.915,0.628c0.396,0.419,0.595,0.982,0.595,1.691
				c0,0.193-0.022,0.457-0.064,0.79c-0.043,0.333-0.107,0.666-0.193,0.999l-1.71,6.847c-0.106,0.419-0.2,0.83-0.28,1.232
				c-0.08,0.403-0.12,0.733-0.12,0.991c0,0.612,0.136,1.031,0.409,1.257s0.714,0.338,1.323,0.338c0.203,0,0.494-0.026,0.874-0.081
				C-340.364,297.978-340.073,297.914-339.869,297.838z M-338.727,277.254c0,0.611-0.199,1.146-0.596,1.602s-0.891,0.684-1.48,0.684
				c-0.547,0-1.02-0.217-1.416-0.651c-0.397-0.435-0.596-0.931-0.596-1.488c0-0.591,0.198-1.105,0.596-1.545
				c0.396-0.44,0.869-0.66,1.416-0.66c0.611,0,1.11,0.207,1.497,0.619C-338.92,276.227-338.727,276.708-338.727,277.254z"/>
			<path fill="#FFFFFF" d="M-334.06,299.93c-1.02,0-1.765-0.207-2.237-0.619c-0.472-0.413-0.708-1.006-0.708-1.778
				c0-0.247,0.016-0.48,0.048-0.7s0.075-0.47,0.129-0.749l2.508-10.75h-2.878l0.339-1.465h2.938l1.123-4.715h2.895l-1.089,4.715
				h4.481l-0.337,1.465h-4.443l-2.077,8.867c-0.097,0.408-0.177,0.803-0.242,1.184c-0.064,0.381-0.096,0.705-0.096,0.974
				c0,0.59,0.147,1.021,0.442,1.295s0.829,0.41,1.602,0.41c0.279,0,0.67-0.034,1.175-0.104c0.504-0.069,0.896-0.158,1.175-0.266
				l-0.274,1.175c-0.751,0.29-1.459,0.539-2.124,0.749C-332.375,299.826-333.159,299.93-334.06,299.93z"/>
			<path fill="#FFFFFF" d="M-315.95,297.258h-0.097c-0.988,0.827-1.927,1.476-2.818,1.947c-0.891,0.473-1.905,0.709-3.043,0.709
				c-1.03,0-1.846-0.298-2.447-0.894s-0.902-1.376-0.902-2.342c0-0.257,0.021-0.563,0.064-0.917c0.043-0.354,0.145-0.88,0.305-1.577
				l1.252-5.021c0.118-0.482,0.208-0.903,0.273-1.263s0.097-0.706,0.097-1.038c0-0.602-0.099-1.001-0.297-1.199
				c-0.199-0.198-0.603-0.298-1.213-0.298c-0.236,0-0.536,0.045-0.9,0.135s-0.648,0.163-0.852,0.22l0.241-1.038
				c0.837-0.378,1.574-0.664,2.213-0.859c0.638-0.194,1.151-0.292,1.537-0.292c0.858,0,1.494,0.193,1.907,0.58
				c0.413,0.386,0.62,0.965,0.62,1.737c0,0.193-0.022,0.456-0.064,0.789c-0.043,0.333-0.107,0.665-0.193,0.998l-1.46,5.874
				c-0.107,0.45-0.198,0.871-0.273,1.263c-0.075,0.393-0.112,0.689-0.112,0.894c0,0.719,0.174,1.287,0.523,1.706
				c0.349,0.418,0.862,0.628,1.54,0.628c0.784,0,1.55-0.193,2.297-0.58c0.747-0.386,1.449-0.917,2.104-1.593l2.66-12.038
				l2.778-0.193l0.193,0.241l-2.766,12.602c-0.409,1.846-0.931,3.422-1.563,4.731c-0.633,1.309-1.374,2.366-2.221,3.17
				c-0.891,0.848-1.851,1.459-2.881,1.835c-1.03,0.376-2.205,0.563-3.524,0.563c-0.912,0-1.636-0.064-2.173-0.193
				s-0.96-0.306-1.271-0.531c-0.311-0.215-0.521-0.456-0.627-0.724c-0.107-0.269-0.161-0.537-0.161-0.805
				c0-0.462,0.14-0.869,0.418-1.224c0.279-0.354,0.682-0.53,1.208-0.53c0.397,0,0.735,0.112,1.014,0.338
				c0.279,0.225,0.504,0.472,0.676,0.74c0.193,0.289,0.37,0.616,0.531,0.981c0.161,0.364,0.29,0.654,0.387,0.869h0.386
				c0.612,0,1.258-0.15,1.94-0.451c0.681-0.3,1.307-0.767,1.876-1.399c0.612-0.688,1.162-1.572,1.65-2.655
				C-316.628,300.07-316.24,298.772-315.95,297.258z"/>
		</g>
	</g>
	<g>
		<circle fill="#D40B6B" cx="-369.076" cy="-33.624" r="113.298"/>
		<g enable-background="new    ">
			<path fill="#FFFFFF" d="M-404.318-38.705c0,2.178-0.424,4.155-1.271,5.93c-0.848,1.776-1.958,3.249-3.332,4.417
				c-1.427,1.213-3.018,2.13-4.771,2.752c-1.754,0.623-3.592,0.934-5.512,0.934h-9.962l0.242-1.062c0.279,0,0.673-0.027,1.183-0.081
				c0.509-0.054,0.872-0.123,1.086-0.209c0.386-0.15,0.678-0.362,0.877-0.635c0.198-0.274,0.335-0.598,0.411-0.974l3.798-16.431
				c0.032-0.129,0.062-0.271,0.089-0.426c0.026-0.156,0.04-0.282,0.04-0.378c0-0.236-0.04-0.442-0.121-0.62
				c-0.081-0.177-0.244-0.324-0.491-0.442c-0.279-0.129-0.623-0.239-1.03-0.33c-0.408-0.091-0.719-0.153-0.933-0.185l0.241-1.062
				h9.672c0.965,0,2.017,0.137,3.154,0.41c1.137,0.274,2.199,0.743,3.187,1.408c1.041,0.698,1.875,1.628,2.502,2.792
				C-404.632-41.733-404.318-40.336-404.318-38.705z M-408.1-38.683c0-2.405-0.645-4.273-1.933-5.605s-3.001-1.997-5.139-1.997
				c-0.44,0-0.896,0.008-1.369,0.024s-0.843,0.03-1.111,0.041l-4.083,17.732c-0.032,0.151-0.059,0.296-0.081,0.436
				c-0.021,0.14-0.032,0.274-0.032,0.402c0,0.645,0.269,1.098,0.805,1.361s1.417,0.395,2.64,0.395c1.599,0,3.056-0.365,4.371-1.095
				c1.315-0.73,2.407-1.702,3.276-2.915c0.891-1.256,1.556-2.625,1.996-4.107C-408.32-35.494-408.1-37.051-408.1-38.683z"/>
			<path fill="#FFFFFF" d="M-389.11-37.573c0,1.139-0.356,2.117-1.07,2.934c-0.714,0.817-1.752,1.467-3.114,1.95
				c-0.998,0.366-2.006,0.661-3.025,0.887c-1.02,0.226-2.146,0.414-3.38,0.564c0,1.695,0.314,2.991,0.941,3.886
				c0.628,0.896,1.547,1.344,2.76,1.344c1.073,0,2.02-0.268,2.84-0.805c0.821-0.536,1.628-1.335,2.422-2.398l0.917,0.676
				c-0.858,1.309-1.931,2.355-3.219,3.138s-2.623,1.175-4.007,1.175c-1.899,0-3.35-0.532-4.353-1.595
				c-1.003-1.063-1.505-2.572-1.505-4.527c0-1.353,0.212-2.645,0.636-3.874s1.043-2.354,1.859-3.375
				c0.794-0.999,1.768-1.804,2.921-2.416c1.153-0.612,2.427-0.918,3.822-0.918c1.545,0,2.69,0.314,3.436,0.943
				C-389.482-39.354-389.11-38.551-389.11-37.573z M-392.071-37.969c0-0.417-0.059-0.747-0.177-0.987s-0.268-0.42-0.451-0.538
				c-0.193-0.128-0.397-0.208-0.611-0.241c-0.215-0.032-0.435-0.048-0.66-0.048c-1.288,0-2.476,0.707-3.565,2.12
				c-1.089,1.413-1.778,3.174-2.068,5.283c0.751-0.107,1.599-0.259,2.542-0.458c0.944-0.198,1.728-0.458,2.35-0.779
				c0.891-0.46,1.553-1.052,1.988-1.774S-392.071-36.973-392.071-37.969z"/>
			<path fill="#FFFFFF" d="M-371.745-37.946c0,1.633-0.247,3.289-0.74,4.97c-0.494,1.681-1.17,3.149-2.028,4.406
				c-0.869,1.3-1.905,2.355-3.106,3.166c-1.202,0.811-2.521,1.216-3.959,1.216c-1.406,0-2.527-0.39-3.364-1.168
				c-0.837-0.779-1.255-1.823-1.255-3.134c0-0.247,0.03-0.526,0.089-0.838c0.059-0.311,0.099-0.521,0.121-0.628l1.4-5.155
				c0.107-0.419,0.201-0.83,0.282-1.232s0.121-0.754,0.121-1.055c0-0.602-0.104-1.004-0.314-1.208
				c-0.209-0.204-0.619-0.306-1.231-0.306c-0.225,0-0.531,0.046-0.917,0.139s-0.676,0.164-0.869,0.215l0.241-1.022
				c0.837-0.373,1.581-0.66,2.23-0.863c0.649-0.202,1.167-0.303,1.554-0.303c0.858,0,1.495,0.199,1.908,0.596
				c0.413,0.397,0.62,0.972,0.62,1.724c0,0.215-0.019,0.476-0.057,0.782s-0.104,0.642-0.201,1.007l-1.548,6.009
				c-0.107,0.408-0.188,0.8-0.241,1.176c-0.054,0.376-0.081,0.618-0.081,0.725c0,0.559,0.088,1.013,0.266,1.362
				c0.177,0.349,0.399,0.62,0.668,0.813c0.257,0.183,0.539,0.312,0.845,0.387s0.62,0.113,0.941,0.113
				c0.729,0,1.483-0.231,2.261-0.693c0.778-0.462,1.457-1.063,2.036-1.805c0.633-0.805,1.143-1.705,1.529-2.698
				s0.579-2.092,0.579-3.295c0-0.644-0.088-1.141-0.266-1.49c-0.177-0.349-0.373-0.652-0.587-0.91
				c-0.214-0.269-0.41-0.55-0.587-0.846c-0.177-0.295-0.265-0.712-0.265-1.249c0-0.612,0.204-1.079,0.611-1.401
				s0.837-0.483,1.288-0.483c0.633,0,1.129,0.255,1.489,0.765C-371.925-39.651-371.745-38.913-371.745-37.946z"/>
			<path fill="#FFFFFF" d="M-355.829-37.573c0,1.139-0.356,2.117-1.07,2.934c-0.714,0.817-1.752,1.467-3.114,1.95
				c-0.998,0.366-2.006,0.661-3.025,0.887c-1.02,0.226-2.146,0.414-3.38,0.564c0,1.695,0.314,2.991,0.941,3.886
				c0.628,0.896,1.547,1.344,2.76,1.344c1.073,0,2.02-0.268,2.84-0.805c0.821-0.536,1.628-1.335,2.422-2.398l0.917,0.676
				c-0.858,1.309-1.931,2.355-3.219,3.138s-2.623,1.175-4.007,1.175c-1.899,0-3.35-0.532-4.353-1.595
				c-1.003-1.063-1.505-2.572-1.505-4.527c0-1.353,0.212-2.645,0.636-3.874s1.043-2.354,1.859-3.375
				c0.794-0.999,1.768-1.804,2.921-2.416c1.153-0.612,2.427-0.918,3.822-0.918c1.545,0,2.69,0.314,3.436,0.943
				C-356.202-39.354-355.829-38.551-355.829-37.573z M-358.79-37.969c0-0.417-0.059-0.747-0.177-0.987s-0.268-0.42-0.451-0.538
				c-0.193-0.128-0.397-0.208-0.611-0.241c-0.215-0.032-0.435-0.048-0.66-0.048c-1.288,0-2.476,0.707-3.565,2.12
				c-1.089,1.413-1.778,3.174-2.068,5.283c0.751-0.107,1.599-0.259,2.542-0.458c0.944-0.198,1.728-0.458,2.35-0.779
				c0.891-0.46,1.553-1.052,1.988-1.774S-358.79-36.973-358.79-37.969z"/>
			<path fill="#FFFFFF" d="M-345.512-49.343l-4.5,19.376c-0.097,0.408-0.188,0.816-0.274,1.223c-0.086,0.408-0.129,0.74-0.129,0.998
				c0,0.611,0.137,1.03,0.41,1.255c0.273,0.225,0.715,0.338,1.326,0.338c0.214,0,0.533-0.027,0.956-0.081
				c0.423-0.054,0.742-0.118,0.956-0.193l-0.242,1.03c-0.965,0.386-1.708,0.66-2.229,0.821c-0.521,0.161-1.108,0.241-1.762,0.241
				c-0.858,0-1.51-0.223-1.955-0.668c-0.445-0.445-0.668-0.996-0.668-1.65c0-0.247,0.024-0.504,0.072-0.773s0.115-0.606,0.201-1.015
				l3.922-16.958c0.075-0.333,0.126-0.564,0.153-0.693c0.026-0.128,0.04-0.29,0.04-0.483c0-0.386-0.064-0.684-0.194-0.894
				c-0.129-0.209-0.312-0.368-0.549-0.475c-0.227-0.096-0.512-0.161-0.857-0.193c-0.345-0.032-0.695-0.069-1.051-0.112l0.226-0.982
				l5.986-0.354L-345.512-49.343z"/>
			<path fill="#FFFFFF" d="M-329.162-34.596c0,1.268-0.215,2.535-0.644,3.802c-0.43,1.267-1.052,2.378-1.867,3.334
				c-0.826,0.988-1.821,1.78-2.985,2.376c-1.164,0.596-2.513,0.894-4.047,0.894c-1.781,0-3.227-0.574-4.337-1.724
				c-1.111-1.149-1.666-2.696-1.666-4.639c0-1.429,0.236-2.76,0.708-3.996c0.472-1.235,1.105-2.319,1.899-3.254
				c0.805-0.934,1.799-1.688,2.985-2.263c1.185-0.574,2.47-0.862,3.854-0.862c1.91,0,3.404,0.583,4.482,1.748
				C-329.701-38.013-329.162-36.485-329.162-34.596z M-332.445-35.208c0-1.525-0.271-2.669-0.812-3.432
				c-0.542-0.763-1.323-1.144-2.342-1.144c-0.891,0-1.73,0.274-2.519,0.822c-0.789,0.548-1.467,1.439-2.036,2.674
				c-0.44,0.935-0.762,1.974-0.966,3.118c-0.204,1.144-0.306,2.199-0.306,3.166c0,1.536,0.266,2.699,0.796,3.488
				c0.531,0.79,1.333,1.184,2.406,1.184c0.955,0,1.802-0.301,2.542-0.902c0.741-0.602,1.341-1.364,1.803-2.288
				c0.461-0.902,0.815-1.936,1.062-3.102C-332.569-32.789-332.445-33.983-332.445-35.208z"/>
			<path fill="#FFFFFF" d="M-310.156-34.772c0,1.439-0.252,2.803-0.756,4.092c-0.503,1.289-1.173,2.405-2.009,3.351
				c-0.933,1.042-1.942,1.815-3.03,2.319c-1.088,0.505-2.205,0.757-3.352,0.757c-0.922,0-1.677-0.113-2.267-0.338
				s-1.115-0.505-1.576-0.838l-0.939,4.217c-0.064,0.268-0.115,0.521-0.153,0.757c-0.038,0.236-0.056,0.424-0.056,0.563
				c0,0.29,0.104,0.521,0.314,0.692c0.209,0.171,0.448,0.295,0.716,0.37c0.268,0.086,0.569,0.15,0.901,0.193
				c0.333,0.042,0.633,0.075,0.901,0.096l-0.226,1.014h-8.876l0.226-1.014c0.343-0.021,0.665-0.048,0.965-0.08
				c0.301-0.032,0.585-0.086,0.853-0.161c0.333-0.097,0.598-0.277,0.797-0.54c0.198-0.263,0.34-0.588,0.426-0.975l3.359-14.817
				c0.085-0.408,0.166-0.819,0.241-1.232c0.075-0.413,0.113-0.77,0.113-1.071c0-0.602-0.094-1.004-0.282-1.208
				s-0.592-0.306-1.213-0.306c-0.236,0-0.536,0.046-0.9,0.137c-0.364,0.091-0.648,0.164-0.852,0.217l0.241-1.03
				c0.815-0.365,1.551-0.646,2.206-0.845c0.654-0.198,1.212-0.297,1.674-0.297c0.751,0,1.32,0.191,1.707,0.572
				c0.386,0.381,0.628,0.911,0.724,1.587h0.129c0.729-0.676,1.51-1.235,2.341-1.675c0.831-0.44,1.66-0.661,2.486-0.661
				c1.63,0,2.899,0.556,3.806,1.667S-310.156-36.652-310.156-34.772z M-315.176-28.119c0.547-0.88,0.968-1.882,1.262-3.005
				c0.295-1.123,0.442-2.312,0.442-3.569c0-0.569-0.051-1.141-0.153-1.716c-0.102-0.575-0.266-1.05-0.491-1.426
				c-0.236-0.419-0.558-0.744-0.965-0.975c-0.408-0.23-0.944-0.346-1.609-0.346c-0.493,0-1.038,0.15-1.633,0.451
				c-0.595,0.3-1.322,0.865-2.18,1.691l-2.054,9.136c0.075,0.612,0.405,1.185,0.989,1.716c0.584,0.531,1.289,0.797,2.114,0.797
				c0.847,0,1.641-0.247,2.38-0.741S-315.701-27.271-315.176-28.119z"/>
		</g>
	</g>
	<g>
		<circle fill="#D40B6B" cx="-166.426" cy="-297.058" r="113.298"/>
		<g enable-background="new    ">
			<path fill="#FFFFFF" d="M-202.057-294.895l-2.046,6.792h-17.862l0.241-1.062c0.268-0.021,0.649-0.059,1.143-0.113
				c0.493-0.054,0.853-0.123,1.078-0.209c0.386-0.15,0.678-0.368,0.877-0.652c0.198-0.284,0.335-0.614,0.411-0.99l3.817-16.512
				c0.021-0.096,0.04-0.195,0.056-0.297s0.024-0.201,0.024-0.298c0-0.214-0.045-0.411-0.137-0.587
				c-0.091-0.177-0.255-0.33-0.491-0.458c-0.215-0.129-0.529-0.252-0.941-0.37c-0.413-0.118-0.765-0.193-1.054-0.226l0.241-1.062
				h9.637l-0.241,1.062c-0.247,0.011-0.604,0.056-1.07,0.137s-0.877,0.175-1.231,0.282c-0.418,0.14-0.724,0.365-0.917,0.676
				c-0.193,0.312-0.333,0.637-0.418,0.978l-3.566,15.5c-0.086,0.377-0.153,0.708-0.201,0.992s-0.072,0.518-0.072,0.7
				c0,0.59,0.239,0.96,0.716,1.111c0.478,0.15,1.35,0.225,2.618,0.225c0.708,0,1.517-0.062,2.424-0.185
				c0.907-0.123,1.538-0.346,1.892-0.668c0.548-0.483,1.238-1.231,2.07-2.245c0.833-1.014,1.453-1.853,1.861-2.519H-202.057z"/>
			<path fill="#FFFFFF" d="M-190.467-290.229h-0.112c-0.236,0.193-0.517,0.438-0.844,0.733c-0.327,0.295-0.709,0.577-1.149,0.846
				c-0.418,0.269-0.873,0.502-1.366,0.701c-0.493,0.198-1.028,0.298-1.607,0.298c-1.554,0-2.772-0.558-3.656-1.675
				c-0.884-1.117-1.326-2.642-1.326-4.575c0-1.332,0.247-2.625,0.74-3.882c0.493-1.256,1.174-2.384,2.042-3.383
				c0.826-0.956,1.807-1.726,2.943-2.312c1.137-0.585,2.305-0.878,3.506-0.878c0.761,0,1.487,0.102,2.179,0.306
				c0.692,0.204,1.236,0.435,1.633,0.692l2.954-0.757l0.193,0.241l-2.452,10.392c-0.086,0.333-0.174,0.738-0.266,1.216
				s-0.137,0.83-0.137,1.055c0,0.612,0.129,1.026,0.387,1.241c0.257,0.215,0.693,0.322,1.305,0.322c0.205,0,0.495-0.032,0.871-0.097
				c0.376-0.064,0.667-0.134,0.871-0.209l-0.242,1.03c-0.967,0.386-1.688,0.666-2.161,0.837c-0.473,0.171-1.048,0.257-1.725,0.257
				c-0.774,0-1.387-0.226-1.838-0.676C-190.177-288.957-190.424-289.532-190.467-290.229z M-188.148-300.411
				c0-0.354-0.038-0.692-0.113-1.015c-0.075-0.322-0.231-0.623-0.467-0.902c-0.215-0.269-0.51-0.483-0.886-0.645
				c-0.376-0.161-0.848-0.242-1.417-0.242c-0.784,0-1.546,0.258-2.286,0.773c-0.741,0.516-1.406,1.208-1.997,2.079
				c-0.558,0.816-1.015,1.805-1.369,2.964c-0.354,1.161-0.531,2.336-0.531,3.529c0,0.655,0.037,1.235,0.112,1.74
				c0.075,0.505,0.22,0.967,0.434,1.386c0.204,0.408,0.498,0.725,0.883,0.951c0.386,0.226,0.873,0.338,1.462,0.338
				c0.6,0,1.229-0.169,1.887-0.507s1.4-0.932,2.225-1.78L-188.148-300.411z"/>
			<path fill="#FFFFFF" d="M-171.397-290.356h-0.096c-0.494,0.397-0.966,0.762-1.417,1.094s-0.896,0.611-1.335,0.837
				c-0.516,0.257-0.982,0.442-1.401,0.555s-0.966,0.169-1.642,0.169c-1.031,0-1.83-0.298-2.399-0.893
				c-0.569-0.596-0.853-1.376-0.853-2.342c0-0.257,0.021-0.563,0.064-0.917c0.043-0.354,0.145-0.879,0.305-1.577l1.25-5.102
				c0.107-0.472,0.195-0.89,0.265-1.255c0.069-0.365,0.104-0.713,0.104-1.046c0-0.601-0.099-1-0.297-1.199s-0.603-0.298-1.212-0.298
				c-0.236,0-0.536,0.045-0.899,0.135c-0.364,0.09-0.647,0.163-0.851,0.219l0.241-1.038c0.837-0.378,1.574-0.665,2.212-0.859
				c0.638-0.195,1.151-0.292,1.537-0.292c0.858,0,1.489,0.201,1.891,0.604s0.604,0.974,0.604,1.714c0,0.193-0.022,0.456-0.064,0.789
				c-0.043,0.333-0.107,0.665-0.193,0.998l-1.42,5.955c-0.107,0.451-0.195,0.872-0.265,1.263c-0.07,0.392-0.104,0.69-0.104,0.894
				c0,0.719,0.155,1.287,0.466,1.706c0.311,0.418,0.804,0.628,1.479,0.628c0.686,0,1.39-0.18,2.114-0.539s1.45-0.904,2.179-1.634
				l2.801-12.118l2.808-0.193l0.194,0.242l-2.393,10.364c-0.107,0.44-0.204,0.882-0.289,1.328c-0.086,0.445-0.128,0.759-0.128,0.941
				c0,0.611,0.131,1.027,0.394,1.247c0.262,0.22,0.699,0.33,1.309,0.33c0.203,0,0.493-0.032,0.868-0.097
				c0.375-0.064,0.664-0.134,0.867-0.209l-0.241,1.03c-0.89,0.365-1.633,0.639-2.228,0.821c-0.596,0.182-1.146,0.273-1.649,0.273
				c-0.869,0-1.515-0.252-1.938-0.756C-171.186-289.09-171.397-289.68-171.397-290.356z"/>
			<path fill="#FFFFFF" d="M-145.328-289.97l-0.242,1.03c-0.969,0.386-1.723,0.668-2.261,0.845
				c-0.539,0.177-1.082,0.266-1.631,0.266c-0.862,0-1.508-0.223-1.938-0.668c-0.431-0.446-0.646-0.996-0.646-1.651
				c0-0.236,0.021-0.497,0.064-0.781s0.113-0.621,0.21-1.007l1.59-6.009c0.119-0.461,0.213-0.88,0.283-1.256
				c0.069-0.376,0.104-0.677,0.104-0.902c0-0.72-0.171-1.289-0.512-1.708c-0.341-0.419-0.847-0.628-1.517-0.628
				c-0.649,0-1.379,0.215-2.188,0.645c-0.809,0.43-1.57,1.053-2.283,1.87l-2.75,11.824h-3.006l2.413-10.44
				c0.054-0.258,0.131-0.631,0.233-1.12s0.153-0.883,0.153-1.184c0-0.602-0.102-1.004-0.306-1.208
				c-0.205-0.204-0.614-0.306-1.229-0.306c-0.237,0-0.54,0.04-0.906,0.121s-0.653,0.148-0.857,0.201l0.243-1.03
				c0.841-0.375,1.585-0.654,2.232-0.837c0.647-0.182,1.203-0.273,1.667-0.273c0.852,0,1.461,0.231,1.828,0.692
				c0.366,0.462,0.561,1.101,0.583,1.917h0.096c1.176-0.945,2.191-1.646,3.046-2.102c0.855-0.456,1.828-0.685,2.918-0.685
				c1.026,0,1.828,0.298,2.405,0.894c0.577,0.596,0.866,1.378,0.866,2.344c0,0.193-0.03,0.537-0.089,1.031s-0.153,0.983-0.281,1.466
				l-1.354,5.171c-0.097,0.344-0.191,0.739-0.282,1.184c-0.091,0.446-0.137,0.792-0.137,1.039c0,0.612,0.134,1.029,0.403,1.249
				c0.268,0.22,0.708,0.33,1.32,0.33c0.204,0,0.497-0.035,0.877-0.104C-145.825-289.822-145.532-289.895-145.328-289.97z"/>
			<path fill="#FFFFFF" d="M-137.217-287.652c-1.878,0-3.361-0.548-4.45-1.643c-1.089-1.095-1.634-2.653-1.634-4.672
				c0-1.342,0.207-2.628,0.62-3.858s0.99-2.322,1.73-3.278c0.74-0.956,1.676-1.737,2.809-2.344c1.132-0.606,2.39-0.91,3.774-0.91
				c1.534,0,2.701,0.325,3.5,0.974c0.799,0.649,1.199,1.467,1.199,2.454c0,0.741-0.175,1.39-0.523,1.948
				c-0.349,0.558-0.872,0.836-1.569,0.836c-0.579,0-1.014-0.144-1.304-0.433c-0.29-0.289-0.435-0.61-0.435-0.963
				c0-0.342,0.116-0.81,0.348-1.403c0.232-0.594,0.417-1.072,0.553-1.437c-0.118-0.289-0.381-0.5-0.789-0.633
				s-0.832-0.201-1.271-0.201c-1.459,0-2.717,0.851-3.774,2.551c-1.057,1.701-1.585,3.785-1.585,6.252
				c0,1.523,0.341,2.733,1.023,3.629c0.683,0.896,1.604,1.344,2.765,1.344c1.042,0,1.969-0.279,2.781-0.837
				c0.811-0.558,1.588-1.346,2.329-2.366l0.919,0.676c-0.74,1.169-1.746,2.181-3.018,3.034
				C-134.489-288.079-135.822-287.652-137.217-287.652z"/>
			<path fill="#FFFFFF" d="M-111.837-289.97l-0.242,1.03c-0.967,0.386-1.719,0.668-2.256,0.845
				c-0.537,0.177-1.079,0.266-1.627,0.266c-0.859,0-1.503-0.223-1.933-0.668s-0.644-0.996-0.644-1.651
				c0-0.236,0.021-0.497,0.064-0.781s0.113-0.621,0.209-1.007l1.576-6.009c0.118-0.461,0.211-0.88,0.282-1.256
				c0.069-0.376,0.104-0.677,0.104-0.902c0-0.72-0.171-1.289-0.512-1.708c-0.341-0.419-0.847-0.628-1.518-0.628
				c-0.681,0-1.418,0.221-2.211,0.661c-0.793,0.44-1.546,1.059-2.259,1.854l-2.734,11.824h-3.006l4.791-20.726
				c0.054-0.247,0.099-0.457,0.137-0.628s0.056-0.354,0.056-0.547c0-0.387-0.064-0.685-0.193-0.894
				c-0.129-0.209-0.312-0.368-0.549-0.475c-0.205-0.096-0.485-0.161-0.841-0.193s-0.711-0.069-1.067-0.112l0.226-0.982l5.988-0.354
				l0.161,0.241l-2.571,11.124h0.064c1.101-0.891,2.083-1.565,2.949-2.022c0.865-0.456,1.848-0.685,2.949-0.685
				c1.026,0,1.827,0.298,2.404,0.894c0.577,0.596,0.866,1.378,0.866,2.344c0,0.193-0.03,0.537-0.088,1.031
				c-0.059,0.494-0.153,0.983-0.282,1.466l-1.354,5.171c-0.086,0.344-0.178,0.739-0.274,1.184c-0.096,0.446-0.145,0.792-0.145,1.039
				c0,0.612,0.134,1.029,0.402,1.249s0.708,0.33,1.32,0.33c0.204,0,0.497-0.035,0.878-0.104
				C-112.334-289.822-112.042-289.895-111.837-289.97z"/>
		</g>
	</g>
</g>
</svg>
